<?xml version="1.0" encoding="UTF-8" standalone="no"?>
<!DOCTYPE svg PUBLIC "-//W3C//DTD SVG 1.1//EN"
 "http://www.w3.org/Graphics/SVG/1.1/DTD/svg11.dtd">
<!-- Generated by graphviz version 14.1.2 (20260124.0452)
 -->
<!-- Title: G Pages: 1 -->
<svg width="4711pt" height="897pt"
 viewBox="0.00 0.00 4711.00 897.00" xmlns="http://www.w3.org/2000/svg" xmlns:xlink="http://www.w3.org/1999/xlink">
<g id="graph0" class="graph" transform="scale(1 1) rotate(0) translate(14.4 882.32)">
<title>G</title>
<polygon fill="#ffffff" stroke="none" points="-14.4,14.4 -14.4,-882.32 4696.65,-882.32 4696.65,14.4 -14.4,14.4"/>
<!-- II261 -->
<g id="node1" class="node">
<title>II261</title>
<path fill="#ede9fe" stroke="#7c3aed" stroke-width="1.4" d="M2740.88,-639.28C2740.88,-639.28 2652.12,-639.28 2652.12,-639.28 2646.12,-639.28 2640.12,-633.28 2640.12,-627.28 2640.12,-627.28 2640.12,-615.28 2640.12,-615.28 2640.12,-609.28 2646.12,-603.28 2652.12,-603.28 2652.12,-603.28 2740.88,-603.28 2740.88,-603.28 2746.88,-603.28 2752.88,-609.28 2752.88,-615.28 2752.88,-615.28 2752.88,-627.28 2752.88,-627.28 2752.88,-633.28 2746.88,-639.28 2740.88,-639.28"/>
<text xml:space="preserve" text-anchor="middle" x="2696.5" y="-623.78" font-family="Arial" font-size="10.00">Лукерья Харламовна</text>
<text xml:space="preserve" text-anchor="middle" x="2696.5" y="-611.78" font-family="Arial" font-size="10.00">1867 — SEP 1943</text>
</g>
<!-- FF97 -->
<g id="node82" class="node">
<title>FF97</title>
<ellipse fill="#94a3b8" stroke="#94a3b8" cx="2696.5" cy="-564.12" rx="2.16" ry="2.16"/>
</g>
<!-- II261&#45;&gt;FF97 -->
<g id="edge42" class="edge">
<title>II261&#45;&gt;FF97</title>
<path fill="none" stroke="#64748b" stroke-width="1.1" d="M2697.22,-602.88C2697.22,-602.88 2697.22,-578.28 2697.22,-578.28"/>
<polygon fill="#64748b" stroke="#64748b" stroke-width="1.1" points="2700.72,-578.28 2697.22,-568.28 2693.72,-578.28 2700.72,-578.28"/>
</g>
<!-- II785 -->
<g id="node2" class="node">
<title>II785</title>
<path fill="#ffffff" stroke="#334155" d="M463.25,-264.64C463.25,-264.64 427.75,-264.64 427.75,-264.64 421.75,-264.64 415.75,-258.64 415.75,-252.64 415.75,-252.64 415.75,-240.64 415.75,-240.64 415.75,-234.64 421.75,-228.64 427.75,-228.64 427.75,-228.64 463.25,-228.64 463.25,-228.64 469.25,-228.64 475.25,-234.64 475.25,-240.64 475.25,-240.64 475.25,-252.64 475.25,-252.64 475.25,-258.64 469.25,-264.64 463.25,-264.64"/>
<text xml:space="preserve" text-anchor="middle" x="445.5" y="-243.14" font-family="Arial" font-size="10.00">Людмила</text>
</g>
<!-- II629 -->
<g id="node3" class="node">
<title>II629</title>
<path fill="#ede9fe" stroke="#7c3aed" stroke-width="1.4" d="M528.5,-753.6C528.5,-753.6 498.5,-753.6 498.5,-753.6 492.5,-753.6 486.5,-747.6 486.5,-741.6 486.5,-741.6 486.5,-729.6 486.5,-729.6 486.5,-723.6 492.5,-717.6 498.5,-717.6 498.5,-717.6 528.5,-717.6 528.5,-717.6 534.5,-717.6 540.5,-723.6 540.5,-729.6 540.5,-729.6 540.5,-741.6 540.5,-741.6 540.5,-747.6 534.5,-753.6 528.5,-753.6"/>
<text xml:space="preserve" text-anchor="middle" x="513.5" y="-732.1" font-family="Arial" font-size="10.00">Мартын</text>
</g>
<!-- FF239 -->
<g id="node92" class="node">
<title>FF239</title>
<ellipse fill="#94a3b8" stroke="#94a3b8" cx="513.5" cy="-678.44" rx="2.16" ry="2.16"/>
</g>
<!-- II629&#45;&gt;FF239 -->
<g id="edge80" class="edge">
<title>II629&#45;&gt;FF239</title>
<path fill="none" stroke="#64748b" stroke-width="1.1" d="M513.5,-717.2C513.5,-717.2 513.5,-692.6 513.5,-692.6"/>
<polygon fill="#64748b" stroke="#64748b" stroke-width="1.1" points="517,-692.6 513.5,-682.6 510,-692.6 517,-692.6"/>
</g>
<!-- II482 -->
<g id="node4" class="node">
<title>II482</title>
<path fill="#ede9fe" stroke="#7c3aed" stroke-width="1.4" d="M559,-639.28C559,-639.28 468,-639.28 468,-639.28 462,-639.28 456,-633.28 456,-627.28 456,-627.28 456,-615.28 456,-615.28 456,-609.28 462,-603.28 468,-603.28 468,-603.28 559,-603.28 559,-603.28 565,-603.28 571,-609.28 571,-615.28 571,-615.28 571,-627.28 571,-627.28 571,-633.28 565,-639.28 559,-639.28"/>
<text xml:space="preserve" text-anchor="middle" x="513.5" y="-623.78" font-family="Arial" font-size="10.00">Матрена Мартыновна</text>
<text xml:space="preserve" text-anchor="middle" x="513.5" y="-611.78" font-family="Arial" font-size="10.00">1866</text>
</g>
<!-- FF179 -->
<g id="node91" class="node">
<title>FF179</title>
<ellipse fill="#94a3b8" stroke="#94a3b8" cx="513.5" cy="-564.12" rx="2.16" ry="2.16"/>
</g>
<!-- II482&#45;&gt;FF179 -->
<g id="edge76" class="edge">
<title>II482&#45;&gt;FF179</title>
<path fill="none" stroke="#64748b" stroke-width="1.1" d="M512.78,-602.88C512.78,-602.88 512.78,-578.28 512.78,-578.28"/>
<polygon fill="#64748b" stroke="#64748b" stroke-width="1.1" points="516.28,-578.28 512.78,-568.28 509.28,-578.28 516.28,-578.28"/>
</g>
<!-- II783 -->
<g id="node5" class="node">
<title>II783</title>
<path fill="#ffffff" stroke="#334155" d="M226.5,-264.64C226.5,-264.64 192.5,-264.64 192.5,-264.64 186.5,-264.64 180.5,-258.64 180.5,-252.64 180.5,-252.64 180.5,-240.64 180.5,-240.64 180.5,-234.64 186.5,-228.64 192.5,-228.64 192.5,-228.64 226.5,-228.64 226.5,-228.64 232.5,-228.64 238.5,-234.64 238.5,-240.64 238.5,-240.64 238.5,-252.64 238.5,-252.64 238.5,-258.64 232.5,-264.64 226.5,-264.64"/>
<text xml:space="preserve" text-anchor="middle" x="209.5" y="-243.14" font-family="Arial" font-size="10.00">Надежда</text>
</g>
<!-- II322 -->
<g id="node6" class="node">
<title>II322</title>
<path fill="#ede9fe" stroke="#7c3aed" stroke-width="1.4" d="M1726.38,-753.6C1726.38,-753.6 1616.62,-753.6 1616.62,-753.6 1610.62,-753.6 1604.62,-747.6 1604.62,-741.6 1604.62,-741.6 1604.62,-729.6 1604.62,-729.6 1604.62,-723.6 1610.62,-717.6 1616.62,-717.6 1616.62,-717.6 1726.38,-717.6 1726.38,-717.6 1732.38,-717.6 1738.38,-723.6 1738.38,-729.6 1738.38,-729.6 1738.38,-741.6 1738.38,-741.6 1738.38,-747.6 1732.38,-753.6 1726.38,-753.6"/>
<text xml:space="preserve" text-anchor="middle" x="1671.5" y="-738.1" font-family="Arial" font-size="10.00">Прасковья Спиридоновна</text>
<text xml:space="preserve" text-anchor="middle" x="1671.5" y="-726.1" font-family="Arial" font-size="10.00">1837</text>
</g>
<!-- FF114 -->
<g id="node83" class="node">
<title>FF114</title>
<ellipse fill="#94a3b8" stroke="#94a3b8" cx="1582.5" cy="-678.44" rx="2.16" ry="2.16"/>
</g>
<!-- II322&#45;&gt;FF114 -->
<g id="edge52" class="edge">
<title>II322&#45;&gt;FF114</title>
<path fill="none" stroke="#64748b" stroke-width="1.1" d="M1630,-717.07C1630,-700.56 1630,-679 1630,-679 1630,-679 1596.72,-679 1596.72,-679"/>
<polygon fill="#64748b" stroke="#64748b" stroke-width="1.1" points="1596.72,-675.5 1586.72,-679 1596.72,-682.5 1596.72,-675.5"/>
</g>
<!-- II324 -->
<g id="node7" class="node">
<title>II324</title>
<path fill="#ede9fe" stroke="#7c3aed" stroke-width="1.4" d="M1230.5,-753.6C1230.5,-753.6 1200.5,-753.6 1200.5,-753.6 1194.5,-753.6 1188.5,-747.6 1188.5,-741.6 1188.5,-741.6 1188.5,-729.6 1188.5,-729.6 1188.5,-723.6 1194.5,-717.6 1200.5,-717.6 1200.5,-717.6 1230.5,-717.6 1230.5,-717.6 1236.5,-717.6 1242.5,-723.6 1242.5,-729.6 1242.5,-729.6 1242.5,-741.6 1242.5,-741.6 1242.5,-747.6 1236.5,-753.6 1230.5,-753.6"/>
<text xml:space="preserve" text-anchor="middle" x="1215.5" y="-732.1" font-family="Arial" font-size="10.00">Пётр</text>
</g>
<!-- FF115 -->
<g id="node84" class="node">
<title>FF115</title>
<ellipse fill="#94a3b8" stroke="#94a3b8" cx="1215.5" cy="-678.44" rx="2.16" ry="2.16"/>
</g>
<!-- II324&#45;&gt;FF115 -->
<g id="edge56" class="edge">
<title>II324&#45;&gt;FF115</title>
<path fill="none" stroke="#64748b" stroke-width="1.1" d="M1215.5,-717.2C1215.5,-717.2 1215.5,-692.6 1215.5,-692.6"/>
<polygon fill="#64748b" stroke="#64748b" stroke-width="1.1" points="1219,-692.6 1215.5,-682.6 1212,-692.6 1219,-692.6"/>
</g>
<!-- II481 -->
<g id="node8" class="node">
<title>II481</title>
<path fill="#ede9fe" stroke="#7c3aed" stroke-width="1.4" d="M1690,-867.92C1690,-867.92 1653,-867.92 1653,-867.92 1647,-867.92 1641,-861.92 1641,-855.92 1641,-855.92 1641,-843.92 1641,-843.92 1641,-837.92 1647,-831.92 1653,-831.92 1653,-831.92 1690,-831.92 1690,-831.92 1696,-831.92 1702,-837.92 1702,-843.92 1702,-843.92 1702,-855.92 1702,-855.92 1702,-861.92 1696,-867.92 1690,-867.92"/>
<text xml:space="preserve" text-anchor="middle" x="1671.5" y="-846.42" font-family="Arial" font-size="10.00">Спиридон</text>
</g>
<!-- FF178 -->
<g id="node90" class="node">
<title>FF178</title>
<ellipse fill="#94a3b8" stroke="#94a3b8" cx="1671.5" cy="-792.76" rx="2.16" ry="2.16"/>
</g>
<!-- II481&#45;&gt;FF178 -->
<g id="edge73" class="edge">
<title>II481&#45;&gt;FF178</title>
<path fill="none" stroke="#64748b" stroke-width="1.1" d="M1671.5,-831.52C1671.5,-831.52 1671.5,-806.92 1671.5,-806.92"/>
<polygon fill="#64748b" stroke="#64748b" stroke-width="1.1" points="1675,-806.92 1671.5,-796.92 1668,-806.92 1675,-806.92"/>
</g>
<!-- II154 -->
<g id="node9" class="node">
<title>II154</title>
<path fill="#ffffff" stroke="#334155" d="M1735.62,-378.96C1735.62,-378.96 1663.38,-378.96 1663.38,-378.96 1657.38,-378.96 1651.38,-372.96 1651.38,-366.96 1651.38,-366.96 1651.38,-354.96 1651.38,-354.96 1651.38,-348.96 1657.38,-342.96 1663.38,-342.96 1663.38,-342.96 1735.62,-342.96 1735.62,-342.96 1741.62,-342.96 1747.62,-348.96 1747.62,-354.96 1747.62,-354.96 1747.62,-366.96 1747.62,-366.96 1747.62,-372.96 1741.62,-378.96 1735.62,-378.96"/>
<text xml:space="preserve" text-anchor="middle" x="1699.5" y="-363.46" font-family="Arial" font-size="10.00">Степанида</text>
<text xml:space="preserve" text-anchor="middle" x="1699.5" y="-351.46" font-family="Arial" font-size="10.00">ABT 1921 — 1971</text>
</g>
<!-- II48 -->
<g id="node10" class="node">
<title>II48</title>
<path fill="#ffffff" stroke="#334155" d="M4133.38,-639.28C4133.38,-639.28 4047.62,-639.28 4047.62,-639.28 4041.62,-639.28 4035.62,-633.28 4035.62,-627.28 4035.62,-627.28 4035.62,-615.28 4035.62,-615.28 4035.62,-609.28 4041.62,-603.28 4047.62,-603.28 4047.62,-603.28 4133.38,-603.28 4133.38,-603.28 4139.38,-603.28 4145.38,-609.28 4145.38,-615.28 4145.38,-615.28 4145.38,-627.28 4145.38,-627.28 4145.38,-633.28 4139.38,-639.28 4133.38,-639.28"/>
<text xml:space="preserve" text-anchor="middle" x="4090.5" y="-623.78" font-family="Arial" font-size="10.00">Фетиния Игнатьевна</text>
<text xml:space="preserve" text-anchor="middle" x="4090.5" y="-611.78" font-family="Arial" font-size="10.00">1884 — 1963</text>
</g>
<!-- FF19 -->
<g id="node77" class="node">
<title>FF19</title>
<ellipse fill="#94a3b8" stroke="#94a3b8" cx="4173.5" cy="-564.12" rx="2.16" ry="2.16"/>
</g>
<!-- II48&#45;&gt;FF19 -->
<g id="edge14" class="edge">
<title>II48&#45;&gt;FF19</title>
<path fill="none" stroke="#64748b" stroke-width="1.1" d="M4137.19,-602.84C4137.19,-585.77 4137.19,-563 4137.19,-563 4137.19,-563 4159.45,-563 4159.45,-563"/>
<polygon fill="#64748b" stroke="#64748b" stroke-width="1.1" points="4159.45,-566.5 4169.45,-563 4159.45,-559.5 4159.45,-566.5"/>
</g>
<!-- II441 -->
<g id="node11" class="node">
<title>II441</title>
<path fill="#ede9fe" stroke="#7c3aed" stroke-width="1.4" d="M2711.5,-753.6C2711.5,-753.6 2681.5,-753.6 2681.5,-753.6 2675.5,-753.6 2669.5,-747.6 2669.5,-741.6 2669.5,-741.6 2669.5,-729.6 2669.5,-729.6 2669.5,-723.6 2675.5,-717.6 2681.5,-717.6 2681.5,-717.6 2711.5,-717.6 2711.5,-717.6 2717.5,-717.6 2723.5,-723.6 2723.5,-729.6 2723.5,-729.6 2723.5,-741.6 2723.5,-741.6 2723.5,-747.6 2717.5,-753.6 2711.5,-753.6"/>
<text xml:space="preserve" text-anchor="middle" x="2696.5" y="-732.1" font-family="Arial" font-size="10.00">Харлам</text>
</g>
<!-- FF160 -->
<g id="node88" class="node">
<title>FF160</title>
<ellipse fill="#94a3b8" stroke="#94a3b8" cx="2696.5" cy="-678.44" rx="2.16" ry="2.16"/>
</g>
<!-- II441&#45;&gt;FF160 -->
<g id="edge69" class="edge">
<title>II441&#45;&gt;FF160</title>
<path fill="none" stroke="#64748b" stroke-width="1.1" d="M2696.5,-717.2C2696.5,-717.2 2696.5,-692.6 2696.5,-692.6"/>
<polygon fill="#64748b" stroke="#64748b" stroke-width="1.1" points="2700,-692.6 2696.5,-682.6 2693,-692.6 2700,-692.6"/>
</g>
<!-- II53 -->
<g id="node12" class="node">
<title>II53</title>
<path fill="#ffffff" stroke="#334155" d="M4365.5,-524.96C4365.5,-524.96 4229.5,-524.96 4229.5,-524.96 4223.5,-524.96 4217.5,-518.96 4217.5,-512.96 4217.5,-512.96 4217.5,-500.96 4217.5,-500.96 4217.5,-494.96 4223.5,-488.96 4229.5,-488.96 4229.5,-488.96 4365.5,-488.96 4365.5,-488.96 4371.5,-488.96 4377.5,-494.96 4377.5,-500.96 4377.5,-500.96 4377.5,-512.96 4377.5,-512.96 4377.5,-518.96 4371.5,-524.96 4365.5,-524.96"/>
<text xml:space="preserve" text-anchor="middle" x="4297.5" y="-509.46" font-family="Arial" font-size="10.00">Анфим Димитриевич Амбросов</text>
<text xml:space="preserve" text-anchor="middle" x="4297.5" y="-497.46" font-family="Arial" font-size="10.00">1909 — 14 JUL 1985</text>
</g>
<!-- II47 -->
<g id="node13" class="node">
<title>II47</title>
<path fill="#ffffff" stroke="#334155" d="M4328.88,-639.28C4328.88,-639.28 4186.12,-639.28 4186.12,-639.28 4180.12,-639.28 4174.12,-633.28 4174.12,-627.28 4174.12,-627.28 4174.12,-615.28 4174.12,-615.28 4174.12,-609.28 4180.12,-603.28 4186.12,-603.28 4186.12,-603.28 4328.88,-603.28 4328.88,-603.28 4334.88,-603.28 4340.88,-609.28 4340.88,-615.28 4340.88,-615.28 4340.88,-627.28 4340.88,-627.28 4340.88,-633.28 4334.88,-639.28 4328.88,-639.28"/>
<text xml:space="preserve" text-anchor="middle" x="4257.5" y="-623.78" font-family="Arial" font-size="10.00">Димитрий Данильевич Амбросов</text>
<text xml:space="preserve" text-anchor="middle" x="4257.5" y="-611.78" font-family="Arial" font-size="10.00">1880 — 29 DEC 1953</text>
</g>
<!-- II47&#45;&gt;FF19 -->
<g id="edge13" class="edge">
<title>II47&#45;&gt;FF19</title>
<path fill="none" stroke="#64748b" stroke-width="1.1" d="M4174.89,-602.88C4174.89,-602.88 4174.89,-577.93 4174.89,-577.93"/>
<polygon fill="#64748b" stroke="#64748b" stroke-width="1.1" points="4178.39,-577.93 4174.89,-567.93 4171.39,-577.93 4178.39,-577.93"/>
</g>
<!-- II54 -->
<g id="node14" class="node">
<title>II54</title>
<path fill="#ffffff" stroke="#334155" d="M3623.38,-524.96C3623.38,-524.96 3501.62,-524.96 3501.62,-524.96 3495.62,-524.96 3489.62,-518.96 3489.62,-512.96 3489.62,-512.96 3489.62,-500.96 3489.62,-500.96 3489.62,-494.96 3495.62,-488.96 3501.62,-488.96 3501.62,-488.96 3623.38,-488.96 3623.38,-488.96 3629.38,-488.96 3635.38,-494.96 3635.38,-500.96 3635.38,-500.96 3635.38,-512.96 3635.38,-512.96 3635.38,-518.96 3629.38,-524.96 3623.38,-524.96"/>
<text xml:space="preserve" text-anchor="middle" x="3562.5" y="-509.46" font-family="Arial" font-size="10.00">Иван Димитривич Амбросов</text>
<text xml:space="preserve" text-anchor="middle" x="3562.5" y="-497.46" font-family="Arial" font-size="10.00">1911 — 1944</text>
</g>
<!-- FF50 -->
<g id="node79" class="node">
<title>FF50</title>
<ellipse fill="#94a3b8" stroke="#94a3b8" cx="3111.5" cy="-433.96" rx="2.16" ry="2.16"/>
</g>
<!-- II54&#45;&gt;FF50 -->
<g id="edge29" class="edge">
<title>II54&#45;&gt;FF50</title>
<path fill="none" stroke="#64748b" stroke-width="1.1" d="M3518.67,-488.5C3518.67,-482.33 3518.67,-477 3518.67,-477 3518.67,-477 3111.5,-477 3111.5,-477 3111.5,-477 3111.5,-448.19 3111.5,-448.19"/>
<polygon fill="#64748b" stroke="#64748b" stroke-width="1.1" points="3115,-448.19 3111.5,-438.19 3108,-448.19 3115,-448.19"/>
</g>
<!-- II16 -->
<g id="node15" class="node">
<title>II16</title>
<path fill="#dbeafe" stroke="#1d4ed8" stroke-width="2" d="M4054.5,-451.96C4054.5,-451.96 3936.5,-451.96 3936.5,-451.96 3930.5,-451.96 3924.5,-445.96 3924.5,-439.96 3924.5,-439.96 3924.5,-427.96 3924.5,-427.96 3924.5,-421.96 3930.5,-415.96 3936.5,-415.96 3936.5,-415.96 4054.5,-415.96 4054.5,-415.96 4060.5,-415.96 4066.5,-421.96 4066.5,-427.96 4066.5,-427.96 4066.5,-439.96 4066.5,-439.96 4066.5,-445.96 4060.5,-451.96 4054.5,-451.96"/>
<text xml:space="preserve" text-anchor="middle" x="3995.5" y="-436.46" font-family="Arial" font-size="10.00">Кузьма Амбросов</text>
<text xml:space="preserve" text-anchor="middle" x="3995.5" y="-424.46" font-family="Arial" font-size="10.00">5 NOV 1918 — 11 JAN 2009</text>
</g>
<!-- FF6 -->
<g id="node76" class="node">
<title>FF6</title>
<ellipse fill="#94a3b8" stroke="#94a3b8" cx="1848.5" cy="-303.8" rx="2.16" ry="2.16"/>
</g>
<!-- II16&#45;&gt;FF6 -->
<g id="edge10" class="edge">
<title>II16&#45;&gt;FF6</title>
<path fill="none" stroke="#64748b" stroke-width="1.1" d="M3995.5,-415.06C3995.5,-379.02 3995.5,-304 3995.5,-304 3995.5,-304 1862.59,-304 1862.59,-304"/>
<polygon fill="#64748b" stroke="#64748b" stroke-width="1.1" points="1862.59,-300.5 1852.59,-304 1862.59,-307.5 1862.59,-300.5"/>
</g>
<!-- II51 -->
<g id="node16" class="node">
<title>II51</title>
<path fill="#ffffff" stroke="#334155" d="M4462,-524.96C4462,-524.96 4419,-524.96 4419,-524.96 4413,-524.96 4407,-518.96 4407,-512.96 4407,-512.96 4407,-500.96 4407,-500.96 4407,-494.96 4413,-488.96 4419,-488.96 4419,-488.96 4462,-488.96 4462,-488.96 4468,-488.96 4474,-494.96 4474,-500.96 4474,-500.96 4474,-512.96 4474,-512.96 4474,-518.96 4468,-524.96 4462,-524.96"/>
<text xml:space="preserve" text-anchor="middle" x="4440.5" y="-503.46" font-family="Arial" font-size="10.00">Амбросова</text>
</g>
<!-- II52 -->
<g id="node17" class="node">
<title>II52</title>
<path fill="#ffffff" stroke="#334155" d="M4670.25,-524.96C4670.25,-524.96 4514.75,-524.96 4514.75,-524.96 4508.75,-524.96 4502.75,-518.96 4502.75,-512.96 4502.75,-512.96 4502.75,-500.96 4502.75,-500.96 4502.75,-494.96 4508.75,-488.96 4514.75,-488.96 4514.75,-488.96 4670.25,-488.96 4670.25,-488.96 4676.25,-488.96 4682.25,-494.96 4682.25,-500.96 4682.25,-500.96 4682.25,-512.96 4682.25,-512.96 4682.25,-518.96 4676.25,-524.96 4670.25,-524.96"/>
<text xml:space="preserve" text-anchor="middle" x="4592.5" y="-509.46" font-family="Arial" font-size="10.00">Ефросиния Дмитриевна Амбросова</text>
<text xml:space="preserve" text-anchor="middle" x="4592.5" y="-497.46" font-family="Arial" font-size="10.00">16 NOV 1907 — 7 MAY 1984</text>
</g>
<!-- II136 -->
<g id="node18" class="node">
<title>II136</title>
<path fill="#ffffff" stroke="#334155" d="M3194.5,-378.96C3194.5,-378.96 3028.5,-378.96 3028.5,-378.96 3022.5,-378.96 3016.5,-372.96 3016.5,-366.96 3016.5,-366.96 3016.5,-354.96 3016.5,-354.96 3016.5,-348.96 3022.5,-342.96 3028.5,-342.96 3028.5,-342.96 3194.5,-342.96 3194.5,-342.96 3200.5,-342.96 3206.5,-348.96 3206.5,-354.96 3206.5,-354.96 3206.5,-366.96 3206.5,-366.96 3206.5,-372.96 3200.5,-378.96 3194.5,-378.96"/>
<text xml:space="preserve" text-anchor="middle" x="3111.5" y="-363.46" font-family="Arial" font-size="10.00">Калерия &quot;Алла&quot; Ивановна Амбросова</text>
<text xml:space="preserve" text-anchor="middle" x="3111.5" y="-351.46" font-family="Arial" font-size="10.00">14 JUN 1941</text>
</g>
<!-- II7 -->
<g id="node19" class="node">
<title>II7</title>
<path fill="#dbeafe" stroke="#1d4ed8" stroke-width="2" d="M1478.38,-264.64C1478.38,-264.64 1326.62,-264.64 1326.62,-264.64 1320.62,-264.64 1314.62,-258.64 1314.62,-252.64 1314.62,-252.64 1314.62,-240.64 1314.62,-240.64 1314.62,-234.64 1320.62,-228.64 1326.62,-228.64 1326.62,-228.64 1478.38,-228.64 1478.38,-228.64 1484.38,-228.64 1490.38,-234.64 1490.38,-240.64 1490.38,-240.64 1490.38,-252.64 1490.38,-252.64 1490.38,-258.64 1484.38,-264.64 1478.38,-264.64"/>
<text xml:space="preserve" text-anchor="middle" x="1402.5" y="-249.14" font-family="Arial" font-size="10.00">Людмила Кузьминична Амбросова</text>
<text xml:space="preserve" text-anchor="middle" x="1402.5" y="-237.14" font-family="Arial" font-size="10.00">10 AUG 1948</text>
</g>
<!-- FF2 -->
<g id="node75" class="node">
<title>FF2</title>
<ellipse fill="#94a3b8" stroke="#94a3b8" cx="967.5" cy="-189.48" rx="2.16" ry="2.16"/>
</g>
<!-- II7&#45;&gt;FF2 -->
<g id="edge7" class="edge">
<title>II7&#45;&gt;FF2</title>
<path fill="none" stroke="#64748b" stroke-width="1.1" d="M1313.68,-247C1186.46,-247 967.5,-247 967.5,-247 967.5,-247 967.5,-203.62 967.5,-203.62"/>
<polygon fill="#64748b" stroke="#64748b" stroke-width="1.1" points="971,-203.62 967.5,-193.62 964,-203.62 971,-203.62"/>
</g>
<!-- II50 -->
<g id="node20" class="node">
<title>II50</title>
<path fill="#ffffff" stroke="#334155" d="M3931.38,-524.96C3931.38,-524.96 3809.62,-524.96 3809.62,-524.96 3803.62,-524.96 3797.62,-518.96 3797.62,-512.96 3797.62,-512.96 3797.62,-500.96 3797.62,-500.96 3797.62,-494.96 3803.62,-488.96 3809.62,-488.96 3809.62,-488.96 3931.38,-488.96 3931.38,-488.96 3937.38,-488.96 3943.38,-494.96 3943.38,-500.96 3943.38,-500.96 3943.38,-512.96 3943.38,-512.96 3943.38,-518.96 3937.38,-524.96 3931.38,-524.96"/>
<text xml:space="preserve" text-anchor="middle" x="3870.5" y="-509.46" font-family="Arial" font-size="10.00">Марина Амбросова</text>
<text xml:space="preserve" text-anchor="middle" x="3870.5" y="-497.46" font-family="Arial" font-size="10.00">30 JUL 1914 — 18 AUG 1999</text>
</g>
<!-- II49 -->
<g id="node21" class="node">
<title>II49</title>
<path fill="#ffffff" stroke="#334155" d="M4117,-524.96C4117,-524.96 3984,-524.96 3984,-524.96 3978,-524.96 3972,-518.96 3972,-512.96 3972,-512.96 3972,-500.96 3972,-500.96 3972,-494.96 3978,-488.96 3984,-488.96 3984,-488.96 4117,-488.96 4117,-488.96 4123,-488.96 4129,-494.96 4129,-500.96 4129,-500.96 4129,-512.96 4129,-512.96 4129,-518.96 4123,-524.96 4117,-524.96"/>
<text xml:space="preserve" text-anchor="middle" x="4050.5" y="-509.46" font-family="Arial" font-size="10.00">Мария Дмитриевна Амбросова</text>
<text xml:space="preserve" text-anchor="middle" x="4050.5" y="-497.46" font-family="Arial" font-size="10.00">1904 — 1934</text>
</g>
<!-- II784 -->
<g id="node22" class="node">
<title>II784</title>
<path fill="#ede9fe" stroke="#7c3aed" stroke-width="1.4" d="M323,-264.64C323,-264.64 292,-264.64 292,-264.64 286,-264.64 280,-258.64 280,-252.64 280,-252.64 280,-240.64 280,-240.64 280,-234.64 286,-228.64 292,-228.64 292,-228.64 323,-228.64 323,-228.64 329,-228.64 335,-234.64 335,-240.64 335,-240.64 335,-252.64 335,-252.64 335,-258.64 329,-264.64 323,-264.64"/>
<text xml:space="preserve" text-anchor="middle" x="307.5" y="-243.14" font-family="Arial" font-size="10.00">Андреев</text>
</g>
<!-- II631 -->
<g id="node23" class="node">
<title>II631</title>
<path fill="#ede9fe" stroke="#7c3aed" stroke-width="1.4" d="M349.25,-378.96C349.25,-378.96 265.75,-378.96 265.75,-378.96 259.75,-378.96 253.75,-372.96 253.75,-366.96 253.75,-366.96 253.75,-354.96 253.75,-354.96 253.75,-348.96 259.75,-342.96 265.75,-342.96 265.75,-342.96 349.25,-342.96 349.25,-342.96 355.25,-342.96 361.25,-348.96 361.25,-354.96 361.25,-354.96 361.25,-366.96 361.25,-366.96 361.25,-372.96 355.25,-378.96 349.25,-378.96"/>
<text xml:space="preserve" text-anchor="middle" x="307.5" y="-357.46" font-family="Arial" font-size="10.00">Александр Андреев</text>
</g>
<!-- FF305 -->
<g id="node96" class="node">
<title>FF305</title>
<ellipse fill="#94a3b8" stroke="#94a3b8" cx="307.5" cy="-303.8" rx="2.16" ry="2.16"/>
</g>
<!-- II631&#45;&gt;FF305 -->
<g id="edge91" class="edge">
<title>II631&#45;&gt;FF305</title>
<path fill="none" stroke="#64748b" stroke-width="1.1" d="M307.5,-342.56C307.5,-342.56 307.5,-317.96 307.5,-317.96"/>
<polygon fill="#64748b" stroke="#64748b" stroke-width="1.1" points="311,-317.96 307.5,-307.96 304,-317.96 311,-317.96"/>
</g>
<!-- II264 -->
<g id="node24" class="node">
<title>II264</title>
<path fill="#ede9fe" stroke="#7c3aed" stroke-width="1.4" d="M3081.5,-524.96C3081.5,-524.96 2957.5,-524.96 2957.5,-524.96 2951.5,-524.96 2945.5,-518.96 2945.5,-512.96 2945.5,-512.96 2945.5,-500.96 2945.5,-500.96 2945.5,-494.96 2951.5,-488.96 2957.5,-488.96 2957.5,-488.96 3081.5,-488.96 3081.5,-488.96 3087.5,-488.96 3093.5,-494.96 3093.5,-500.96 3093.5,-500.96 3093.5,-512.96 3093.5,-512.96 3093.5,-518.96 3087.5,-524.96 3081.5,-524.96"/>
<text xml:space="preserve" text-anchor="middle" x="3019.5" y="-509.46" font-family="Arial" font-size="10.00">Аникий Васильевич Андреев</text>
<text xml:space="preserve" text-anchor="middle" x="3019.5" y="-497.46" font-family="Arial" font-size="10.00">1891</text>
</g>
<!-- II262 -->
<g id="node25" class="node">
<title>II262</title>
<path fill="#ede9fe" stroke="#7c3aed" stroke-width="1.4" d="M2308.62,-639.28C2308.62,-639.28 2170.38,-639.28 2170.38,-639.28 2164.38,-639.28 2158.38,-633.28 2158.38,-627.28 2158.38,-627.28 2158.38,-615.28 2158.38,-615.28 2158.38,-609.28 2164.38,-603.28 2170.38,-603.28 2170.38,-603.28 2308.62,-603.28 2308.62,-603.28 2314.62,-603.28 2320.62,-609.28 2320.62,-615.28 2320.62,-615.28 2320.62,-627.28 2320.62,-627.28 2320.62,-633.28 2314.62,-639.28 2308.62,-639.28"/>
<text xml:space="preserve" text-anchor="middle" x="2239.5" y="-623.78" font-family="Arial" font-size="10.00">Василий Евстигнеевич Андреев</text>
<text xml:space="preserve" text-anchor="middle" x="2239.5" y="-611.78" font-family="Arial" font-size="10.00">1863</text>
</g>
<!-- II262&#45;&gt;FF97 -->
<g id="edge41" class="edge">
<title>II262&#45;&gt;FF97</title>
<path fill="none" stroke="#64748b" stroke-width="1.1" d="M2277.88,-602.71C2277.88,-593.79 2277.88,-585 2277.88,-585 2277.88,-585 2695.78,-585 2695.78,-585 2695.78,-585 2695.78,-578.35 2695.78,-578.35"/>
<polygon fill="#64748b" stroke="#64748b" stroke-width="1.1" points="2699.28,-578.35 2695.78,-568.35 2692.28,-578.35 2699.28,-578.35"/>
</g>
<!-- II483 -->
<g id="node26" class="node">
<title>II483</title>
<path fill="#ede9fe" stroke="#7c3aed" stroke-width="1.4" d="M355.5,-524.96C355.5,-524.96 231.5,-524.96 231.5,-524.96 225.5,-524.96 219.5,-518.96 219.5,-512.96 219.5,-512.96 219.5,-500.96 219.5,-500.96 219.5,-494.96 225.5,-488.96 231.5,-488.96 231.5,-488.96 355.5,-488.96 355.5,-488.96 361.5,-488.96 367.5,-494.96 367.5,-500.96 367.5,-500.96 367.5,-512.96 367.5,-512.96 367.5,-518.96 361.5,-524.96 355.5,-524.96"/>
<text xml:space="preserve" text-anchor="middle" x="293.5" y="-509.46" font-family="Arial" font-size="10.00">Денис Прокопьевич Андреев</text>
<text xml:space="preserve" text-anchor="middle" x="293.5" y="-497.46" font-family="Arial" font-size="10.00">1890 — 1970</text>
</g>
<!-- FF240 -->
<g id="node93" class="node">
<title>FF240</title>
<ellipse fill="#94a3b8" stroke="#94a3b8" cx="293.5" cy="-433.96" rx="2.16" ry="2.16"/>
</g>
<!-- II483&#45;&gt;FF240 -->
<g id="edge82" class="edge">
<title>II483&#45;&gt;FF240</title>
<path fill="none" stroke="#64748b" stroke-width="1.1" d="M293.5,-488.54C293.5,-488.54 293.5,-447.87 293.5,-447.87"/>
<polygon fill="#64748b" stroke="#64748b" stroke-width="1.1" points="297,-447.87 293.5,-437.87 290,-447.87 297,-447.87"/>
</g>
<!-- II321 -->
<g id="node27" class="node">
<title>II321</title>
<path fill="#ede9fe" stroke="#7c3aed" stroke-width="1.4" d="M1563.75,-753.6C1563.75,-753.6 1423.25,-753.6 1423.25,-753.6 1417.25,-753.6 1411.25,-747.6 1411.25,-741.6 1411.25,-741.6 1411.25,-729.6 1411.25,-729.6 1411.25,-723.6 1417.25,-717.6 1423.25,-717.6 1423.25,-717.6 1563.75,-717.6 1563.75,-717.6 1569.75,-717.6 1575.75,-723.6 1575.75,-729.6 1575.75,-729.6 1575.75,-741.6 1575.75,-741.6 1575.75,-747.6 1569.75,-753.6 1563.75,-753.6"/>
<text xml:space="preserve" text-anchor="middle" x="1493.5" y="-738.1" font-family="Arial" font-size="10.00">Евстигней Трофимович Андреев</text>
<text xml:space="preserve" text-anchor="middle" x="1493.5" y="-726.1" font-family="Arial" font-size="10.00">1827</text>
</g>
<!-- II321&#45;&gt;FF114 -->
<g id="edge51" class="edge">
<title>II321&#45;&gt;FF114</title>
<path fill="none" stroke="#64748b" stroke-width="1.1" d="M1576.38,-736C1580.22,-736 1582.5,-736 1582.5,-736 1582.5,-736 1582.5,-692.58 1582.5,-692.58"/>
<polygon fill="#64748b" stroke="#64748b" stroke-width="1.1" points="1586,-692.58 1582.5,-682.58 1579,-692.58 1586,-692.58"/>
</g>
<!-- II484 -->
<g id="node28" class="node">
<title>II484</title>
<path fill="#ede9fe" stroke="#7c3aed" stroke-width="1.4" d="M466.12,-524.96C466.12,-524.96 408.88,-524.96 408.88,-524.96 402.88,-524.96 396.88,-518.96 396.88,-512.96 396.88,-512.96 396.88,-500.96 396.88,-500.96 396.88,-494.96 402.88,-488.96 408.88,-488.96 408.88,-488.96 466.12,-488.96 466.12,-488.96 472.12,-488.96 478.12,-494.96 478.12,-500.96 478.12,-500.96 478.12,-512.96 478.12,-512.96 478.12,-518.96 472.12,-524.96 466.12,-524.96"/>
<text xml:space="preserve" text-anchor="middle" x="437.5" y="-509.46" font-family="Arial" font-size="10.00">Иван Андреев</text>
<text xml:space="preserve" text-anchor="middle" x="437.5" y="-497.46" font-family="Arial" font-size="10.00">1895</text>
</g>
<!-- FF241 -->
<g id="node94" class="node">
<title>FF241</title>
<ellipse fill="#94a3b8" stroke="#94a3b8" cx="514.5" cy="-433.96" rx="2.16" ry="2.16"/>
</g>
<!-- II484&#45;&gt;FF241 -->
<g id="edge85" class="edge">
<title>II484&#45;&gt;FF241</title>
<path fill="none" stroke="#64748b" stroke-width="1.1" d="M437.5,-488.49C437.5,-476.85 437.5,-464 437.5,-464 437.5,-464 514.5,-464 514.5,-464 514.5,-464 514.5,-447.98 514.5,-447.98"/>
<polygon fill="#64748b" stroke="#64748b" stroke-width="1.1" points="518,-447.98 514.5,-437.98 511,-447.98 518,-447.98"/>
</g>
<!-- II266 -->
<g id="node29" class="node">
<title>II266</title>
<path fill="#ede9fe" stroke="#7c3aed" stroke-width="1.4" d="M3250,-524.96C3250,-524.96 3135,-524.96 3135,-524.96 3129,-524.96 3123,-518.96 3123,-512.96 3123,-512.96 3123,-500.96 3123,-500.96 3123,-494.96 3129,-488.96 3135,-488.96 3135,-488.96 3250,-488.96 3250,-488.96 3256,-488.96 3262,-494.96 3262,-500.96 3262,-500.96 3262,-512.96 3262,-512.96 3262,-518.96 3256,-524.96 3250,-524.96"/>
<text xml:space="preserve" text-anchor="middle" x="3192.5" y="-509.46" font-family="Arial" font-size="10.00">Иван Васильевич Андреев</text>
<text xml:space="preserve" text-anchor="middle" x="3192.5" y="-497.46" font-family="Arial" font-size="10.00">28 JUL 1895</text>
</g>
<!-- II267 -->
<g id="node30" class="node">
<title>II267</title>
<path fill="#ede9fe" stroke="#7c3aed" stroke-width="1.4" d="M2193.88,-524.96C2193.88,-524.96 2063.12,-524.96 2063.12,-524.96 2057.12,-524.96 2051.12,-518.96 2051.12,-512.96 2051.12,-512.96 2051.12,-500.96 2051.12,-500.96 2051.12,-494.96 2057.12,-488.96 2063.12,-488.96 2063.12,-488.96 2193.88,-488.96 2193.88,-488.96 2199.88,-488.96 2205.88,-494.96 2205.88,-500.96 2205.88,-500.96 2205.88,-512.96 2205.88,-512.96 2205.88,-518.96 2199.88,-524.96 2193.88,-524.96"/>
<text xml:space="preserve" text-anchor="middle" x="2128.5" y="-509.46" font-family="Arial" font-size="10.00">Макарий Васильевич Андреев</text>
<text xml:space="preserve" text-anchor="middle" x="2128.5" y="-497.46" font-family="Arial" font-size="10.00">1904</text>
</g>
<!-- II634 -->
<g id="node31" class="node">
<title>II634</title>
<path fill="#ede9fe" stroke="#7c3aed" stroke-width="1.4" d="M751.25,-378.96C751.25,-378.96 679.75,-378.96 679.75,-378.96 673.75,-378.96 667.75,-372.96 667.75,-366.96 667.75,-366.96 667.75,-354.96 667.75,-354.96 667.75,-348.96 673.75,-342.96 679.75,-342.96 679.75,-342.96 751.25,-342.96 751.25,-342.96 757.25,-342.96 763.25,-348.96 763.25,-354.96 763.25,-354.96 763.25,-366.96 763.25,-366.96 763.25,-372.96 757.25,-378.96 751.25,-378.96"/>
<text xml:space="preserve" text-anchor="middle" x="715.5" y="-357.46" font-family="Arial" font-size="10.00">Панфил Андреев</text>
</g>
<!-- FF307 -->
<g id="node98" class="node">
<title>FF307</title>
<ellipse fill="#94a3b8" stroke="#94a3b8" cx="715.5" cy="-303.8" rx="2.16" ry="2.16"/>
</g>
<!-- II634&#45;&gt;FF307 -->
<g id="edge95" class="edge">
<title>II634&#45;&gt;FF307</title>
<path fill="none" stroke="#64748b" stroke-width="1.1" d="M715.5,-342.56C715.5,-342.56 715.5,-317.96 715.5,-317.96"/>
<polygon fill="#64748b" stroke="#64748b" stroke-width="1.1" points="719,-317.96 715.5,-307.96 712,-317.96 719,-317.96"/>
</g>
<!-- II323 -->
<g id="node32" class="node">
<title>II323</title>
<path fill="#ede9fe" stroke="#7c3aed" stroke-width="1.4" d="M1468.88,-639.28C1468.88,-639.28 1326.12,-639.28 1326.12,-639.28 1320.12,-639.28 1314.12,-633.28 1314.12,-627.28 1314.12,-627.28 1314.12,-615.28 1314.12,-615.28 1314.12,-609.28 1320.12,-603.28 1326.12,-603.28 1326.12,-603.28 1468.88,-603.28 1468.88,-603.28 1474.88,-603.28 1480.88,-609.28 1480.88,-615.28 1480.88,-615.28 1480.88,-627.28 1480.88,-627.28 1480.88,-633.28 1474.88,-639.28 1468.88,-639.28"/>
<text xml:space="preserve" text-anchor="middle" x="1397.5" y="-623.78" font-family="Arial" font-size="10.00">Прокопий Евстигнеевич Андреев</text>
<text xml:space="preserve" text-anchor="middle" x="1397.5" y="-611.78" font-family="Arial" font-size="10.00">1867</text>
</g>
<!-- II323&#45;&gt;FF179 -->
<g id="edge75" class="edge">
<title>II323&#45;&gt;FF179</title>
<path fill="none" stroke="#64748b" stroke-width="1.1" d="M1319.81,-602.63C1319.81,-599.37 1319.81,-597 1319.81,-597 1319.81,-597 514.22,-597 514.22,-597 514.22,-597 514.22,-577.94 514.22,-577.94"/>
<polygon fill="#64748b" stroke="#64748b" stroke-width="1.1" points="517.72,-577.94 514.22,-567.94 510.72,-577.94 517.72,-577.94"/>
</g>
<!-- II155 -->
<g id="node33" class="node">
<title>II155</title>
<path fill="#ede9fe" stroke="#7c3aed" stroke-width="1.4" d="M1643.38,-639.28C1643.38,-639.28 1521.62,-639.28 1521.62,-639.28 1515.62,-639.28 1509.62,-633.28 1509.62,-627.28 1509.62,-627.28 1509.62,-615.28 1509.62,-615.28 1509.62,-609.28 1515.62,-603.28 1521.62,-603.28 1521.62,-603.28 1643.38,-603.28 1643.38,-603.28 1649.38,-603.28 1655.38,-609.28 1655.38,-615.28 1655.38,-615.28 1655.38,-627.28 1655.38,-627.28 1655.38,-633.28 1649.38,-639.28 1643.38,-639.28"/>
<text xml:space="preserve" text-anchor="middle" x="1582.5" y="-623.78" font-family="Arial" font-size="10.00">Пётр Евстигнеевич Андреев</text>
<text xml:space="preserve" text-anchor="middle" x="1582.5" y="-611.78" font-family="Arial" font-size="10.00">1860 — 22 APR 1929</text>
</g>
<!-- FF55 -->
<g id="node81" class="node">
<title>FF55</title>
<ellipse fill="#94a3b8" stroke="#94a3b8" cx="1398.5" cy="-564.12" rx="2.16" ry="2.16"/>
</g>
<!-- II155&#45;&gt;FF55 -->
<g id="edge34" class="edge">
<title>II155&#45;&gt;FF55</title>
<path fill="none" stroke="#64748b" stroke-width="1.1" d="M1582.5,-602.84C1582.5,-585.77 1582.5,-563 1582.5,-563 1582.5,-563 1412.49,-563 1412.49,-563"/>
<polygon fill="#64748b" stroke="#64748b" stroke-width="1.1" points="1412.49,-559.5 1402.49,-563 1412.49,-566.5 1412.49,-559.5"/>
</g>
<!-- II480 -->
<g id="node34" class="node">
<title>II480</title>
<path fill="#ede9fe" stroke="#7c3aed" stroke-width="1.4" d="M1528.5,-867.92C1528.5,-867.92 1458.5,-867.92 1458.5,-867.92 1452.5,-867.92 1446.5,-861.92 1446.5,-855.92 1446.5,-855.92 1446.5,-843.92 1446.5,-843.92 1446.5,-837.92 1452.5,-831.92 1458.5,-831.92 1458.5,-831.92 1528.5,-831.92 1528.5,-831.92 1534.5,-831.92 1540.5,-837.92 1540.5,-843.92 1540.5,-843.92 1540.5,-855.92 1540.5,-855.92 1540.5,-861.92 1534.5,-867.92 1528.5,-867.92"/>
<text xml:space="preserve" text-anchor="middle" x="1493.5" y="-846.42" font-family="Arial" font-size="10.00">Трофим Андреев</text>
</g>
<!-- FF177 -->
<g id="node89" class="node">
<title>FF177</title>
<ellipse fill="#94a3b8" stroke="#94a3b8" cx="1493.5" cy="-792.76" rx="2.16" ry="2.16"/>
</g>
<!-- II480&#45;&gt;FF177 -->
<g id="edge71" class="edge">
<title>II480&#45;&gt;FF177</title>
<path fill="none" stroke="#64748b" stroke-width="1.1" d="M1493.5,-831.52C1493.5,-831.52 1493.5,-806.92 1493.5,-806.92"/>
<polygon fill="#64748b" stroke="#64748b" stroke-width="1.1" points="1497,-806.92 1493.5,-796.92 1490,-806.92 1497,-806.92"/>
</g>
<!-- II159 -->
<g id="node35" class="node">
<title>II159</title>
<path fill="#ede9fe" stroke="#7c3aed" stroke-width="1.4" d="M1001.88,-524.96C1001.88,-524.96 841.12,-524.96 841.12,-524.96 835.12,-524.96 829.12,-518.96 829.12,-512.96 829.12,-512.96 829.12,-500.96 829.12,-500.96 829.12,-494.96 835.12,-488.96 841.12,-488.96 841.12,-488.96 1001.88,-488.96 1001.88,-488.96 1007.88,-488.96 1013.88,-494.96 1013.88,-500.96 1013.88,-500.96 1013.88,-512.96 1013.88,-512.96 1013.88,-518.96 1007.88,-524.96 1001.88,-524.96"/>
<text xml:space="preserve" text-anchor="middle" x="921.5" y="-509.46" font-family="Arial" font-size="10.00">Агафия &quot;Ганька&quot; Петровна Андреева</text>
<text xml:space="preserve" text-anchor="middle" x="921.5" y="-497.46" font-family="Arial" font-size="10.00">1902</text>
</g>
<!-- FF118 -->
<g id="node87" class="node">
<title>FF118</title>
<ellipse fill="#94a3b8" stroke="#94a3b8" cx="964.5" cy="-433.96" rx="2.16" ry="2.16"/>
</g>
<!-- II159&#45;&gt;FF118 -->
<g id="edge66" class="edge">
<title>II159&#45;&gt;FF118</title>
<path fill="none" stroke="#64748b" stroke-width="1.1" d="M964.5,-488.54C964.5,-488.54 964.5,-447.87 964.5,-447.87"/>
<polygon fill="#64748b" stroke="#64748b" stroke-width="1.1" points="968,-447.87 964.5,-437.87 961,-447.87 968,-447.87"/>
</g>
<!-- II158 -->
<g id="node36" class="node">
<title>II158</title>
<path fill="#ede9fe" stroke="#7c3aed" stroke-width="1.4" d="M1670.88,-524.96C1670.88,-524.96 1510.12,-524.96 1510.12,-524.96 1504.12,-524.96 1498.12,-518.96 1498.12,-512.96 1498.12,-512.96 1498.12,-500.96 1498.12,-500.96 1498.12,-494.96 1504.12,-488.96 1510.12,-488.96 1510.12,-488.96 1670.88,-488.96 1670.88,-488.96 1676.88,-488.96 1682.88,-494.96 1682.88,-500.96 1682.88,-500.96 1682.88,-512.96 1682.88,-512.96 1682.88,-518.96 1676.88,-524.96 1670.88,-524.96"/>
<text xml:space="preserve" text-anchor="middle" x="1590.5" y="-509.46" font-family="Arial" font-size="10.00">Агрипина &quot;Рипа&quot; Петровна Андреева</text>
<text xml:space="preserve" text-anchor="middle" x="1590.5" y="-497.46" font-family="Arial" font-size="10.00">BET 1895 AND 1897 — 7 MAR 1967</text>
</g>
<!-- FF116 -->
<g id="node85" class="node">
<title>FF116</title>
<ellipse fill="#94a3b8" stroke="#94a3b8" cx="1281.5" cy="-433.96" rx="2.16" ry="2.16"/>
</g>
<!-- II158&#45;&gt;FF116 -->
<g id="edge59" class="edge">
<title>II158&#45;&gt;FF116</title>
<path fill="none" stroke="#64748b" stroke-width="1.1" d="M1514.19,-488.43C1514.19,-467.11 1514.19,-435 1514.19,-435 1514.19,-435 1295.47,-435 1295.47,-435"/>
<polygon fill="#64748b" stroke="#64748b" stroke-width="1.1" points="1295.47,-431.5 1285.47,-435 1295.47,-438.5 1295.47,-431.5"/>
</g>
<!-- FF117 -->
<g id="node86" class="node">
<title>FF117</title>
<ellipse fill="#94a3b8" stroke="#94a3b8" cx="1583.5" cy="-433.96" rx="2.16" ry="2.16"/>
</g>
<!-- II158&#45;&gt;FF117 -->
<g id="edge63" class="edge">
<title>II158&#45;&gt;FF117</title>
<path fill="none" stroke="#64748b" stroke-width="1.1" d="M1583.5,-488.54C1583.5,-488.54 1583.5,-447.87 1583.5,-447.87"/>
<polygon fill="#64748b" stroke="#64748b" stroke-width="1.1" points="1587,-447.87 1583.5,-437.87 1580,-447.87 1587,-447.87"/>
</g>
<!-- II633 -->
<g id="node37" class="node">
<title>II633</title>
<path fill="#ede9fe" stroke="#7c3aed" stroke-width="1.4" d="M489.12,-378.96C489.12,-378.96 401.88,-378.96 401.88,-378.96 395.88,-378.96 389.88,-372.96 389.88,-366.96 389.88,-366.96 389.88,-354.96 389.88,-354.96 389.88,-348.96 395.88,-342.96 401.88,-342.96 401.88,-342.96 489.12,-342.96 489.12,-342.96 495.12,-342.96 501.12,-348.96 501.12,-354.96 501.12,-354.96 501.12,-366.96 501.12,-366.96 501.12,-372.96 495.12,-378.96 489.12,-378.96"/>
<text xml:space="preserve" text-anchor="middle" x="445.5" y="-357.46" font-family="Arial" font-size="10.00">Анастасия Андреева</text>
</g>
<!-- FF306 -->
<g id="node97" class="node">
<title>FF306</title>
<ellipse fill="#94a3b8" stroke="#94a3b8" cx="445.5" cy="-303.8" rx="2.16" ry="2.16"/>
</g>
<!-- II633&#45;&gt;FF306 -->
<g id="edge93" class="edge">
<title>II633&#45;&gt;FF306</title>
<path fill="none" stroke="#64748b" stroke-width="1.1" d="M445.5,-342.56C445.5,-342.56 445.5,-317.96 445.5,-317.96"/>
<polygon fill="#64748b" stroke="#64748b" stroke-width="1.1" points="449,-317.96 445.5,-307.96 442,-317.96 449,-317.96"/>
</g>
<!-- II786 -->
<g id="node38" class="node">
<title>II786</title>
<path fill="#ede9fe" stroke="#7c3aed" stroke-width="1.4" d="M759.5,-264.64C759.5,-264.64 671.5,-264.64 671.5,-264.64 665.5,-264.64 659.5,-258.64 659.5,-252.64 659.5,-252.64 659.5,-240.64 659.5,-240.64 659.5,-234.64 665.5,-228.64 671.5,-228.64 671.5,-228.64 759.5,-228.64 759.5,-228.64 765.5,-228.64 771.5,-234.64 771.5,-240.64 771.5,-240.64 771.5,-252.64 771.5,-252.64 771.5,-258.64 765.5,-264.64 759.5,-264.64"/>
<text xml:space="preserve" text-anchor="middle" x="715.5" y="-243.14" font-family="Arial" font-size="10.00">Валентина Андреева</text>
</g>
<!-- II57 -->
<g id="node39" class="node">
<title>II57</title>
<path fill="#ede9fe" stroke="#7c3aed" stroke-width="1.4" d="M1847.5,-524.96C1847.5,-524.96 1723.5,-524.96 1723.5,-524.96 1717.5,-524.96 1711.5,-518.96 1711.5,-512.96 1711.5,-512.96 1711.5,-500.96 1711.5,-500.96 1711.5,-494.96 1717.5,-488.96 1723.5,-488.96 1723.5,-488.96 1847.5,-488.96 1847.5,-488.96 1853.5,-488.96 1859.5,-494.96 1859.5,-500.96 1859.5,-500.96 1859.5,-512.96 1859.5,-512.96 1859.5,-518.96 1853.5,-524.96 1847.5,-524.96"/>
<text xml:space="preserve" text-anchor="middle" x="1785.5" y="-509.46" font-family="Arial" font-size="10.00">Евдокия Петровна Андреева</text>
<text xml:space="preserve" text-anchor="middle" x="1785.5" y="-497.46" font-family="Arial" font-size="10.00">1892 — 1969</text>
</g>
<!-- FF21 -->
<g id="node78" class="node">
<title>FF21</title>
<ellipse fill="#94a3b8" stroke="#94a3b8" cx="2019.5" cy="-433.96" rx="2.16" ry="2.16"/>
</g>
<!-- II57&#45;&gt;FF21 -->
<g id="edge23" class="edge">
<title>II57&#45;&gt;FF21</title>
<path fill="none" stroke="#64748b" stroke-width="1.1" d="M1817.94,-488.43C1817.94,-467.11 1817.94,-435 1817.94,-435 1817.94,-435 2005.57,-435 2005.57,-435"/>
<polygon fill="#64748b" stroke="#64748b" stroke-width="1.1" points="2005.57,-438.5 2015.57,-435 2005.57,-431.5 2005.57,-438.5"/>
</g>
<!-- FF54 -->
<g id="node80" class="node">
<title>FF54</title>
<ellipse fill="#94a3b8" stroke="#94a3b8" cx="1742.5" cy="-433.96" rx="2.16" ry="2.16"/>
</g>
<!-- II57&#45;&gt;FF54 -->
<g id="edge32" class="edge">
<title>II57&#45;&gt;FF54</title>
<path fill="none" stroke="#64748b" stroke-width="1.1" d="M1742.5,-488.54C1742.5,-488.54 1742.5,-447.87 1742.5,-447.87"/>
<polygon fill="#64748b" stroke="#64748b" stroke-width="1.1" points="1746,-447.87 1742.5,-437.87 1739,-447.87 1746,-447.87"/>
</g>
<!-- II160 -->
<g id="node40" class="node">
<title>II160</title>
<path fill="#ede9fe" stroke="#7c3aed" stroke-width="1.4" d="M787.88,-524.96C787.88,-524.96 711.12,-524.96 711.12,-524.96 705.12,-524.96 699.12,-518.96 699.12,-512.96 699.12,-512.96 699.12,-500.96 699.12,-500.96 699.12,-494.96 705.12,-488.96 711.12,-488.96 711.12,-488.96 787.88,-488.96 787.88,-488.96 793.88,-488.96 799.88,-494.96 799.88,-500.96 799.88,-500.96 799.88,-512.96 799.88,-512.96 799.88,-518.96 793.88,-524.96 787.88,-524.96"/>
<text xml:space="preserve" text-anchor="middle" x="749.5" y="-503.46" font-family="Arial" font-size="10.00">Манефа Андреева</text>
</g>
<!-- II630 -->
<g id="node41" class="node">
<title>II630</title>
<path fill="#ede9fe" stroke="#7c3aed" stroke-width="1.4" d="M212.25,-378.96C212.25,-378.96 140.75,-378.96 140.75,-378.96 134.75,-378.96 128.75,-372.96 128.75,-366.96 128.75,-366.96 128.75,-354.96 128.75,-354.96 128.75,-348.96 134.75,-342.96 140.75,-342.96 140.75,-342.96 212.25,-342.96 212.25,-342.96 218.25,-342.96 224.25,-348.96 224.25,-354.96 224.25,-354.96 224.25,-366.96 224.25,-366.96 224.25,-372.96 218.25,-378.96 212.25,-378.96"/>
<text xml:space="preserve" text-anchor="middle" x="176.5" y="-357.46" font-family="Arial" font-size="10.00">Марфа Андреева</text>
</g>
<!-- FF304 -->
<g id="node95" class="node">
<title>FF304</title>
<ellipse fill="#94a3b8" stroke="#94a3b8" cx="198.5" cy="-303.8" rx="2.16" ry="2.16"/>
</g>
<!-- II630&#45;&gt;FF304 -->
<g id="edge89" class="edge">
<title>II630&#45;&gt;FF304</title>
<path fill="none" stroke="#64748b" stroke-width="1.1" d="M198.5,-342.56C198.5,-342.56 198.5,-317.96 198.5,-317.96"/>
<polygon fill="#64748b" stroke="#64748b" stroke-width="1.1" points="202,-317.96 198.5,-307.96 195,-317.96 202,-317.96"/>
</g>
<!-- II157 -->
<g id="node42" class="node">
<title>II157</title>
<path fill="#ede9fe" stroke="#7c3aed" stroke-width="1.4" d="M1457.5,-524.96C1457.5,-524.96 1339.5,-524.96 1339.5,-524.96 1333.5,-524.96 1327.5,-518.96 1327.5,-512.96 1327.5,-512.96 1327.5,-500.96 1327.5,-500.96 1327.5,-494.96 1333.5,-488.96 1339.5,-488.96 1339.5,-488.96 1457.5,-488.96 1457.5,-488.96 1463.5,-488.96 1469.5,-494.96 1469.5,-500.96 1469.5,-500.96 1469.5,-512.96 1469.5,-512.96 1469.5,-518.96 1463.5,-524.96 1457.5,-524.96"/>
<text xml:space="preserve" text-anchor="middle" x="1398.5" y="-509.46" font-family="Arial" font-size="10.00">Марфа Петровна Андреева</text>
<text xml:space="preserve" text-anchor="middle" x="1398.5" y="-497.46" font-family="Arial" font-size="10.00">1890</text>
</g>
<!-- II156 -->
<g id="node43" class="node">
<title>II156</title>
<path fill="#ede9fe" stroke="#7c3aed" stroke-width="1.4" d="M1273,-639.28C1273,-639.28 1158,-639.28 1158,-639.28 1152,-639.28 1146,-633.28 1146,-627.28 1146,-627.28 1146,-615.28 1146,-615.28 1146,-609.28 1152,-603.28 1158,-603.28 1158,-603.28 1273,-603.28 1273,-603.28 1279,-603.28 1285,-609.28 1285,-615.28 1285,-615.28 1285,-627.28 1285,-627.28 1285,-633.28 1279,-639.28 1273,-639.28"/>
<text xml:space="preserve" text-anchor="middle" x="1215.5" y="-623.78" font-family="Arial" font-size="10.00">Марья Петровна Андреева</text>
<text xml:space="preserve" text-anchor="middle" x="1215.5" y="-611.78" font-family="Arial" font-size="10.00">1862 — 28 JAN 1958</text>
</g>
<!-- II156&#45;&gt;FF55 -->
<g id="edge35" class="edge">
<title>II156&#45;&gt;FF55</title>
<path fill="none" stroke="#64748b" stroke-width="1.1" d="M1249,-602.84C1249,-586.1 1249,-564 1249,-564 1249,-564 1384.24,-564 1384.24,-564"/>
<polygon fill="#64748b" stroke="#64748b" stroke-width="1.1" points="1384.24,-567.5 1394.24,-564 1384.24,-560.5 1384.24,-567.5"/>
</g>
<!-- II135 -->
<g id="node44" class="node">
<title>II135</title>
<path fill="#ffedd5" stroke="#ea580c" stroke-width="1.8" d="M2389.88,-524.96C2389.88,-524.96 2247.12,-524.96 2247.12,-524.96 2241.12,-524.96 2235.12,-518.96 2235.12,-512.96 2235.12,-512.96 2235.12,-500.96 2235.12,-500.96 2235.12,-494.96 2241.12,-488.96 2247.12,-488.96 2247.12,-488.96 2389.88,-488.96 2389.88,-488.96 2395.88,-488.96 2401.88,-494.96 2401.88,-500.96 2401.88,-500.96 2401.88,-512.96 2401.88,-512.96 2401.88,-518.96 2395.88,-524.96 2389.88,-524.96"/>
<text xml:space="preserve" text-anchor="middle" x="2318.5" y="-509.46" font-family="Arial" font-size="10.00">Минадора Васильевна Андреева</text>
<text xml:space="preserve" text-anchor="middle" x="2318.5" y="-497.46" font-family="Arial" font-size="10.00">19 SEP 1911 — 26 OCT 1965</text>
</g>
<!-- II135&#45;&gt;FF50 -->
<g id="edge30" class="edge">
<title>II135&#45;&gt;FF50</title>
<path fill="none" stroke="#64748b" stroke-width="1.1" d="M2392.81,-488.43C2392.81,-467.11 2392.81,-435 2392.81,-435 2392.81,-435 3097.51,-435 3097.51,-435"/>
<polygon fill="#64748b" stroke="#64748b" stroke-width="1.1" points="3097.51,-438.5 3107.51,-435 3097.51,-431.5 3097.51,-438.5"/>
</g>
<!-- II269 -->
<g id="node45" class="node">
<title>II269</title>
<path fill="#ede9fe" stroke="#7c3aed" stroke-width="1.4" d="M3448.38,-524.96C3448.38,-524.96 3302.62,-524.96 3302.62,-524.96 3296.62,-524.96 3290.62,-518.96 3290.62,-512.96 3290.62,-512.96 3290.62,-500.96 3290.62,-500.96 3290.62,-494.96 3296.62,-488.96 3302.62,-488.96 3302.62,-488.96 3448.38,-488.96 3448.38,-488.96 3454.38,-488.96 3460.38,-494.96 3460.38,-500.96 3460.38,-500.96 3460.38,-512.96 3460.38,-512.96 3460.38,-518.96 3454.38,-524.96 3448.38,-524.96"/>
<text xml:space="preserve" text-anchor="middle" x="3375.5" y="-503.46" font-family="Arial" font-size="10.00">Просковия Васильевна Андреева</text>
</g>
<!-- FF500047 -->
<g id="node99" class="node">
<title>FF500047</title>
<ellipse fill="#94a3b8" stroke="#94a3b8" cx="3545.5" cy="-433.96" rx="2.16" ry="2.16"/>
</g>
<!-- II269&#45;&gt;FF500047 -->
<g id="edge98" class="edge">
<title>II269&#45;&gt;FF500047</title>
<path fill="none" stroke="#64748b" stroke-width="1.1" d="M3375.5,-488.55C3375.5,-466.94 3375.5,-434 3375.5,-434 3375.5,-434 3531.43,-434 3531.43,-434"/>
<polygon fill="#64748b" stroke="#64748b" stroke-width="1.1" points="3531.43,-437.5 3541.43,-434 3531.43,-430.5 3531.43,-437.5"/>
</g>
<!-- II485 -->
<g id="node46" class="node">
<title>II485</title>
<path fill="#ede9fe" stroke="#7c3aed" stroke-width="1.4" d="M657.62,-524.96C657.62,-524.96 519.38,-524.96 519.38,-524.96 513.38,-524.96 507.38,-518.96 507.38,-512.96 507.38,-512.96 507.38,-500.96 507.38,-500.96 507.38,-494.96 513.38,-488.96 519.38,-488.96 519.38,-488.96 657.62,-488.96 657.62,-488.96 663.62,-488.96 669.62,-494.96 669.62,-500.96 669.62,-500.96 669.62,-512.96 669.62,-512.96 669.62,-518.96 663.62,-524.96 657.62,-524.96"/>
<text xml:space="preserve" text-anchor="middle" x="588.5" y="-503.46" font-family="Arial" font-size="10.00">Устиния Прокопьевна Андреева</text>
</g>
<!-- II268 -->
<g id="node47" class="node">
<title>II268</title>
<path fill="#ffedd5" stroke="#ea580c" stroke-width="1.8" d="M2574.25,-524.96C2574.25,-524.96 2442.75,-524.96 2442.75,-524.96 2436.75,-524.96 2430.75,-518.96 2430.75,-512.96 2430.75,-512.96 2430.75,-500.96 2430.75,-500.96 2430.75,-494.96 2436.75,-488.96 2442.75,-488.96 2442.75,-488.96 2574.25,-488.96 2574.25,-488.96 2580.25,-488.96 2586.25,-494.96 2586.25,-500.96 2586.25,-500.96 2586.25,-512.96 2586.25,-512.96 2586.25,-518.96 2580.25,-524.96 2574.25,-524.96"/>
<text xml:space="preserve" text-anchor="middle" x="2508.5" y="-509.46" font-family="Arial" font-size="10.00">Федора Васильевна Андреева</text>
<text xml:space="preserve" text-anchor="middle" x="2508.5" y="-497.46" font-family="Arial" font-size="10.00">11 MAY 1906 — 28 FEB 1989</text>
</g>
<!-- II632 -->
<g id="node48" class="node">
<title>II632</title>
<path fill="#ede9fe" stroke="#7c3aed" stroke-width="1.4" d="M626.62,-378.96C626.62,-378.96 542.38,-378.96 542.38,-378.96 536.38,-378.96 530.38,-372.96 530.38,-366.96 530.38,-366.96 530.38,-354.96 530.38,-354.96 530.38,-348.96 536.38,-342.96 542.38,-342.96 542.38,-342.96 626.62,-342.96 626.62,-342.96 632.62,-342.96 638.62,-348.96 638.62,-354.96 638.62,-354.96 638.62,-366.96 638.62,-366.96 638.62,-372.96 632.62,-378.96 626.62,-378.96"/>
<text xml:space="preserve" text-anchor="middle" x="584.5" y="-357.46" font-family="Arial" font-size="10.00">Феодосия Андреева</text>
</g>
<!-- II265 -->
<g id="node49" class="node">
<title>II265</title>
<path fill="#ffedd5" stroke="#ea580c" stroke-width="1.8" d="M2765.62,-524.96C2765.62,-524.96 2627.38,-524.96 2627.38,-524.96 2621.38,-524.96 2615.38,-518.96 2615.38,-512.96 2615.38,-512.96 2615.38,-500.96 2615.38,-500.96 2615.38,-494.96 2621.38,-488.96 2627.38,-488.96 2627.38,-488.96 2765.62,-488.96 2765.62,-488.96 2771.62,-488.96 2777.62,-494.96 2777.62,-500.96 2777.62,-500.96 2777.62,-512.96 2777.62,-512.96 2777.62,-518.96 2771.62,-524.96 2765.62,-524.96"/>
<text xml:space="preserve" text-anchor="middle" x="2696.5" y="-509.46" font-family="Arial" font-size="10.00">Фомаида Васильевна Андреева</text>
<text xml:space="preserve" text-anchor="middle" x="2696.5" y="-497.46" font-family="Arial" font-size="10.00">23 MAY 1892 — 21 JAN 1977</text>
</g>
<!-- II263 -->
<g id="node50" class="node">
<title>II263</title>
<path fill="#ffedd5" stroke="#ea580c" stroke-width="1.8" d="M2904.38,-524.96C2904.38,-524.96 2818.62,-524.96 2818.62,-524.96 2812.62,-524.96 2806.62,-518.96 2806.62,-512.96 2806.62,-512.96 2806.62,-500.96 2806.62,-500.96 2806.62,-494.96 2812.62,-488.96 2818.62,-488.96 2818.62,-488.96 2904.38,-488.96 2904.38,-488.96 2910.38,-488.96 2916.38,-494.96 2916.38,-500.96 2916.38,-500.96 2916.38,-512.96 2916.38,-512.96 2916.38,-518.96 2910.38,-524.96 2904.38,-524.96"/>
<text xml:space="preserve" text-anchor="middle" x="2861.5" y="-509.46" font-family="Arial" font-size="10.00">Фоманида Андреева</text>
<text xml:space="preserve" text-anchor="middle" x="2861.5" y="-497.46" font-family="Arial" font-size="10.00">1890</text>
</g>
<!-- II58 -->
<g id="node51" class="node">
<title>II58</title>
<path fill="#ffffff" stroke="#334155" d="M2256.25,-378.96C2256.25,-378.96 2130.75,-378.96 2130.75,-378.96 2124.75,-378.96 2118.75,-372.96 2118.75,-366.96 2118.75,-366.96 2118.75,-354.96 2118.75,-354.96 2118.75,-348.96 2124.75,-342.96 2130.75,-342.96 2130.75,-342.96 2256.25,-342.96 2256.25,-342.96 2262.25,-342.96 2268.25,-348.96 2268.25,-354.96 2268.25,-354.96 2268.25,-366.96 2268.25,-366.96 2268.25,-372.96 2262.25,-378.96 2256.25,-378.96"/>
<text xml:space="preserve" text-anchor="middle" x="2193.5" y="-363.46" font-family="Arial" font-size="10.00">Василий Васильев</text>
<text xml:space="preserve" text-anchor="middle" x="2193.5" y="-351.46" font-family="Arial" font-size="10.00">24 OCT 1926 — 22 DEC 1983</text>
</g>
<!-- II61 -->
<g id="node52" class="node">
<title>II61</title>
<path fill="#ffffff" stroke="#334155" d="M2371.75,-378.96C2371.75,-378.96 2309.25,-378.96 2309.25,-378.96 2303.25,-378.96 2297.25,-372.96 2297.25,-366.96 2297.25,-366.96 2297.25,-354.96 2297.25,-354.96 2297.25,-348.96 2303.25,-342.96 2309.25,-342.96 2309.25,-342.96 2371.75,-342.96 2371.75,-342.96 2377.75,-342.96 2383.75,-348.96 2383.75,-354.96 2383.75,-354.96 2383.75,-366.96 2383.75,-366.96 2383.75,-372.96 2377.75,-378.96 2371.75,-378.96"/>
<text xml:space="preserve" text-anchor="middle" x="2340.5" y="-363.46" font-family="Arial" font-size="10.00">Иван Васильев</text>
<text xml:space="preserve" text-anchor="middle" x="2340.5" y="-351.46" font-family="Arial" font-size="10.00">1932</text>
</g>
<!-- II56 -->
<g id="node53" class="node">
<title>II56</title>
<path fill="#ffffff" stroke="#334155" d="M2010,-524.96C2010,-524.96 1901,-524.96 1901,-524.96 1895,-524.96 1889,-518.96 1889,-512.96 1889,-512.96 1889,-500.96 1889,-500.96 1889,-494.96 1895,-488.96 1901,-488.96 1901,-488.96 2010,-488.96 2010,-488.96 2016,-488.96 2022,-494.96 2022,-500.96 2022,-500.96 2022,-512.96 2022,-512.96 2022,-518.96 2016,-524.96 2010,-524.96"/>
<text xml:space="preserve" text-anchor="middle" x="1955.5" y="-509.46" font-family="Arial" font-size="10.00">Иван Петрович Васильев</text>
<text xml:space="preserve" text-anchor="middle" x="1955.5" y="-497.46" font-family="Arial" font-size="10.00">1897 — 1969</text>
</g>
<!-- II56&#45;&gt;FF21 -->
<g id="edge22" class="edge">
<title>II56&#45;&gt;FF21</title>
<path fill="none" stroke="#64748b" stroke-width="1.1" d="M2019.5,-488.54C2019.5,-488.54 2019.5,-447.87 2019.5,-447.87"/>
<polygon fill="#64748b" stroke="#64748b" stroke-width="1.1" points="2023,-447.87 2019.5,-437.87 2016,-447.87 2023,-447.87"/>
</g>
<!-- II60 -->
<g id="node54" class="node">
<title>II60</title>
<path fill="#ffffff" stroke="#334155" d="M2546.38,-378.96C2546.38,-378.96 2424.62,-378.96 2424.62,-378.96 2418.62,-378.96 2412.62,-372.96 2412.62,-366.96 2412.62,-366.96 2412.62,-354.96 2412.62,-354.96 2412.62,-348.96 2418.62,-342.96 2424.62,-342.96 2424.62,-342.96 2546.38,-342.96 2546.38,-342.96 2552.38,-342.96 2558.38,-348.96 2558.38,-354.96 2558.38,-354.96 2558.38,-366.96 2558.38,-366.96 2558.38,-372.96 2552.38,-378.96 2546.38,-378.96"/>
<text xml:space="preserve" text-anchor="middle" x="2485.5" y="-363.46" font-family="Arial" font-size="10.00">Елизавета Васильева</text>
<text xml:space="preserve" text-anchor="middle" x="2485.5" y="-351.46" font-family="Arial" font-size="10.00">24 APR 1930 — 21 FEB 2011</text>
</g>
<!-- II17 -->
<g id="node55" class="node">
<title>II17</title>
<path fill="#dbeafe" stroke="#1d4ed8" stroke-width="2" d="M1908.62,-378.96C1908.62,-378.96 1788.38,-378.96 1788.38,-378.96 1782.38,-378.96 1776.38,-372.96 1776.38,-366.96 1776.38,-366.96 1776.38,-354.96 1776.38,-354.96 1776.38,-348.96 1782.38,-342.96 1788.38,-342.96 1788.38,-342.96 1908.62,-342.96 1908.62,-342.96 1914.62,-342.96 1920.62,-348.96 1920.62,-354.96 1920.62,-354.96 1920.62,-366.96 1920.62,-366.96 1920.62,-372.96 1914.62,-378.96 1908.62,-378.96"/>
<text xml:space="preserve" text-anchor="middle" x="1848.5" y="-363.46" font-family="Arial" font-size="10.00">Манефа Васильева</text>
<text xml:space="preserve" text-anchor="middle" x="1848.5" y="-351.46" font-family="Arial" font-size="10.00">6 NOV 1924 — 10 MAY 2000</text>
</g>
<!-- II17&#45;&gt;FF6 -->
<g id="edge11" class="edge">
<title>II17&#45;&gt;FF6</title>
<path fill="none" stroke="#64748b" stroke-width="1.1" d="M1848.5,-342.24C1848.5,-342.24 1848.5,-317.93 1848.5,-317.93"/>
<polygon fill="#64748b" stroke="#64748b" stroke-width="1.1" points="1852,-317.93 1848.5,-307.93 1845,-317.93 1852,-317.93"/>
</g>
<!-- II59 -->
<g id="node56" class="node">
<title>II59</title>
<path fill="#ffffff" stroke="#334155" d="M2077.75,-378.96C2077.75,-378.96 1961.25,-378.96 1961.25,-378.96 1955.25,-378.96 1949.25,-372.96 1949.25,-366.96 1949.25,-366.96 1949.25,-354.96 1949.25,-354.96 1949.25,-348.96 1955.25,-342.96 1961.25,-342.96 1961.25,-342.96 2077.75,-342.96 2077.75,-342.96 2083.75,-342.96 2089.75,-348.96 2089.75,-354.96 2089.75,-354.96 2089.75,-366.96 2089.75,-366.96 2089.75,-372.96 2083.75,-378.96 2077.75,-378.96"/>
<text xml:space="preserve" text-anchor="middle" x="2019.5" y="-363.46" font-family="Arial" font-size="10.00">Таисия Васильева</text>
<text xml:space="preserve" text-anchor="middle" x="2019.5" y="-351.46" font-family="Arial" font-size="10.00">1 JAN 1928 — 31 JAN 1986</text>
</g>
<!-- II331 -->
<g id="node57" class="node">
<title>II331</title>
<path fill="#ffffff" stroke="#334155" d="M1172.12,-524.96C1172.12,-524.96 1054.88,-524.96 1054.88,-524.96 1048.88,-524.96 1042.88,-518.96 1042.88,-512.96 1042.88,-512.96 1042.88,-500.96 1042.88,-500.96 1042.88,-494.96 1048.88,-488.96 1054.88,-488.96 1054.88,-488.96 1172.12,-488.96 1172.12,-488.96 1178.12,-488.96 1184.12,-494.96 1184.12,-500.96 1184.12,-500.96 1184.12,-512.96 1184.12,-512.96 1184.12,-518.96 1178.12,-524.96 1172.12,-524.96"/>
<text xml:space="preserve" text-anchor="middle" x="1113.5" y="-509.46" font-family="Arial" font-size="10.00">Ефим Евдокимович Егоров</text>
<text xml:space="preserve" text-anchor="middle" x="1113.5" y="-497.46" font-family="Arial" font-size="10.00">1892</text>
</g>
<!-- II331&#45;&gt;FF118 -->
<g id="edge65" class="edge">
<title>II331&#45;&gt;FF118</title>
<path fill="none" stroke="#64748b" stroke-width="1.1" d="M1061.25,-488.8C1061.25,-467.48 1061.25,-435 1061.25,-435 1061.25,-435 978.56,-435 978.56,-435"/>
<polygon fill="#64748b" stroke="#64748b" stroke-width="1.1" points="978.56,-431.5 968.56,-435 978.56,-438.5 978.56,-431.5"/>
</g>
<!-- II333 -->
<g id="node58" class="node">
<title>II333</title>
<path fill="#ffffff" stroke="#334155" d="M1067.62,-378.96C1067.62,-378.96 947.38,-378.96 947.38,-378.96 941.38,-378.96 935.38,-372.96 935.38,-366.96 935.38,-366.96 935.38,-354.96 935.38,-354.96 935.38,-348.96 941.38,-342.96 947.38,-342.96 947.38,-342.96 1067.62,-342.96 1067.62,-342.96 1073.62,-342.96 1079.62,-348.96 1079.62,-354.96 1079.62,-354.96 1079.62,-366.96 1079.62,-366.96 1079.62,-372.96 1073.62,-378.96 1067.62,-378.96"/>
<text xml:space="preserve" text-anchor="middle" x="1007.5" y="-357.46" font-family="Arial" font-size="10.00">Николай (приемный) Егоров</text>
</g>
<!-- II332 -->
<g id="node59" class="node">
<title>II332</title>
<path fill="#ffffff" stroke="#334155" d="M894.75,-378.96C894.75,-378.96 820.25,-378.96 820.25,-378.96 814.25,-378.96 808.25,-372.96 808.25,-366.96 808.25,-366.96 808.25,-354.96 808.25,-354.96 808.25,-348.96 814.25,-342.96 820.25,-342.96 820.25,-342.96 894.75,-342.96 894.75,-342.96 900.75,-342.96 906.75,-348.96 906.75,-354.96 906.75,-354.96 906.75,-366.96 906.75,-366.96 906.75,-372.96 900.75,-378.96 894.75,-378.96"/>
<text xml:space="preserve" text-anchor="middle" x="857.5" y="-357.46" font-family="Arial" font-size="10.00">Антонина Егорова</text>
</g>
<!-- II327 -->
<g id="node60" class="node">
<title>II327</title>
<path fill="#ffffff" stroke="#334155" d="M1196.75,-378.96C1196.75,-378.96 1128.25,-378.96 1128.25,-378.96 1122.25,-378.96 1116.25,-372.96 1116.25,-366.96 1116.25,-366.96 1116.25,-354.96 1116.25,-354.96 1116.25,-348.96 1122.25,-342.96 1128.25,-342.96 1128.25,-342.96 1196.75,-342.96 1196.75,-342.96 1202.75,-342.96 1208.75,-348.96 1208.75,-354.96 1208.75,-354.96 1208.75,-366.96 1208.75,-366.96 1208.75,-372.96 1202.75,-378.96 1196.75,-378.96"/>
<text xml:space="preserve" text-anchor="middle" x="1162.5" y="-357.46" font-family="Arial" font-size="10.00">Григорий Иванов</text>
</g>
<!-- II326 -->
<g id="node61" class="node">
<title>II326</title>
<path fill="#ffffff" stroke="#334155" d="M1313.5,-378.96C1313.5,-378.96 1249.5,-378.96 1249.5,-378.96 1243.5,-378.96 1237.5,-372.96 1237.5,-366.96 1237.5,-366.96 1237.5,-354.96 1237.5,-354.96 1237.5,-348.96 1243.5,-342.96 1249.5,-342.96 1249.5,-342.96 1313.5,-342.96 1313.5,-342.96 1319.5,-342.96 1325.5,-348.96 1325.5,-354.96 1325.5,-354.96 1325.5,-366.96 1325.5,-366.96 1325.5,-372.96 1319.5,-378.96 1313.5,-378.96"/>
<text xml:space="preserve" text-anchor="middle" x="1281.5" y="-363.46" font-family="Arial" font-size="10.00">Михаил Иванов</text>
<text xml:space="preserve" text-anchor="middle" x="1281.5" y="-351.46" font-family="Arial" font-size="10.00">12 APR 2009</text>
</g>
<!-- II325 -->
<g id="node62" class="node">
<title>II325</title>
<path fill="#ffffff" stroke="#334155" d="M1286,-524.96C1286,-524.96 1225,-524.96 1225,-524.96 1219,-524.96 1213,-518.96 1213,-512.96 1213,-512.96 1213,-500.96 1213,-500.96 1213,-494.96 1219,-488.96 1225,-488.96 1225,-488.96 1286,-488.96 1286,-488.96 1292,-488.96 1298,-494.96 1298,-500.96 1298,-500.96 1298,-512.96 1298,-512.96 1298,-518.96 1292,-524.96 1286,-524.96"/>
<text xml:space="preserve" text-anchor="middle" x="1255.5" y="-503.46" font-family="Arial" font-size="10.00">Никита Иванов</text>
</g>
<!-- II325&#45;&gt;FF116 -->
<g id="edge58" class="edge">
<title>II325&#45;&gt;FF116</title>
<path fill="none" stroke="#64748b" stroke-width="1.1" d="M1281.5,-488.54C1281.5,-488.54 1281.5,-447.87 1281.5,-447.87"/>
<polygon fill="#64748b" stroke="#64748b" stroke-width="1.1" points="1285,-447.87 1281.5,-437.87 1278,-447.87 1285,-447.87"/>
</g>
<!-- II330 -->
<g id="node63" class="node">
<title>II330</title>
<path fill="#ffffff" stroke="#334155" d="M1610.75,-378.96C1610.75,-378.96 1542.25,-378.96 1542.25,-378.96 1536.25,-378.96 1530.25,-372.96 1530.25,-366.96 1530.25,-366.96 1530.25,-354.96 1530.25,-354.96 1530.25,-348.96 1536.25,-342.96 1542.25,-342.96 1542.25,-342.96 1610.75,-342.96 1610.75,-342.96 1616.75,-342.96 1622.75,-348.96 1622.75,-354.96 1622.75,-354.96 1622.75,-366.96 1622.75,-366.96 1622.75,-372.96 1616.75,-378.96 1610.75,-378.96"/>
<text xml:space="preserve" text-anchor="middle" x="1576.5" y="-357.46" font-family="Arial" font-size="10.00">Савелий Иванов</text>
</g>
<!-- II329 -->
<g id="node64" class="node">
<title>II329</title>
<path fill="#ffffff" stroke="#334155" d="M1476.38,-378.96C1476.38,-378.96 1366.62,-378.96 1366.62,-378.96 1360.62,-378.96 1354.62,-372.96 1354.62,-366.96 1354.62,-366.96 1354.62,-354.96 1354.62,-354.96 1354.62,-348.96 1360.62,-342.96 1366.62,-342.96 1366.62,-342.96 1476.38,-342.96 1476.38,-342.96 1482.38,-342.96 1488.38,-348.96 1488.38,-354.96 1488.38,-354.96 1488.38,-366.96 1488.38,-366.96 1488.38,-372.96 1482.38,-378.96 1476.38,-378.96"/>
<text xml:space="preserve" text-anchor="middle" x="1421.5" y="-357.46" font-family="Arial" font-size="10.00">Савелий «Савка» Иванов</text>
</g>
<!-- II3 -->
<g id="node65" class="node">
<title>II3</title>
<path fill="#ffffff" stroke="#334155" d="M689.62,-36C689.62,-36 557.38,-36 557.38,-36 551.38,-36 545.38,-30 545.38,-24 545.38,-24 545.38,-12 545.38,-12 545.38,-6 551.38,0 557.38,0 557.38,0 689.62,0 689.62,0 695.62,0 701.62,-6 701.62,-12 701.62,-12 701.62,-24 701.62,-24 701.62,-30 695.62,-36 689.62,-36"/>
<text xml:space="preserve" text-anchor="middle" x="623.5" y="-20.5" font-family="Arial" font-size="10.00">Александр Эдуардович Ильин</text>
<text xml:space="preserve" text-anchor="middle" x="623.5" y="-8.5" font-family="Arial" font-size="10.00">17 MAY 2006</text>
</g>
<!-- II6 -->
<g id="node66" class="node">
<title>II6</title>
<path fill="#ffffff" stroke="#334155" d="M139,-264.64C139,-264.64 12,-264.64 12,-264.64 6,-264.64 0,-258.64 0,-252.64 0,-252.64 0,-240.64 0,-240.64 0,-234.64 6,-228.64 12,-228.64 12,-228.64 139,-228.64 139,-228.64 145,-228.64 151,-234.64 151,-240.64 151,-240.64 151,-252.64 151,-252.64 151,-258.64 145,-264.64 139,-264.64"/>
<text xml:space="preserve" text-anchor="middle" x="75.5" y="-249.14" font-family="Arial" font-size="10.00">Валентин Фёдорович Ильин</text>
<text xml:space="preserve" text-anchor="middle" x="75.5" y="-237.14" font-family="Arial" font-size="10.00">22 MAR 1949 — 18 DEC 1995</text>
</g>
<!-- II6&#45;&gt;FF2 -->
<g id="edge6" class="edge">
<title>II6&#45;&gt;FF2</title>
<path fill="none" stroke="#64748b" stroke-width="1.1" d="M75.5,-228.4C75.5,-211.52 75.5,-189 75.5,-189 75.5,-189 953.28,-189 953.28,-189"/>
<polygon fill="#64748b" stroke="#64748b" stroke-width="1.1" points="953.28,-192.5 963.28,-189 953.28,-185.5 953.28,-192.5"/>
</g>
<!-- II4 -->
<g id="node67" class="node">
<title>II4</title>
<path fill="#ffffff" stroke="#334155" d="M860.5,-36C860.5,-36 742.5,-36 742.5,-36 736.5,-36 730.5,-30 730.5,-24 730.5,-24 730.5,-12 730.5,-12 730.5,-6 736.5,0 742.5,0 742.5,0 860.5,0 860.5,0 866.5,0 872.5,-6 872.5,-12 872.5,-12 872.5,-24 872.5,-24 872.5,-30 866.5,-36 860.5,-36"/>
<text xml:space="preserve" text-anchor="middle" x="801.5" y="-20.5" font-family="Arial" font-size="10.00">Максим Эдуардович Ильин</text>
<text xml:space="preserve" text-anchor="middle" x="801.5" y="-8.5" font-family="Arial" font-size="10.00">3 MAY 2013</text>
</g>
<!-- II5 -->
<g id="node68" class="node">
<title>II5</title>
<path fill="#ffffff" stroke="#334155" d="M1025.5,-36C1025.5,-36 913.5,-36 913.5,-36 907.5,-36 901.5,-30 901.5,-24 901.5,-24 901.5,-12 901.5,-12 901.5,-6 907.5,0 913.5,0 913.5,0 1025.5,0 1025.5,0 1031.5,0 1037.5,-6 1037.5,-12 1037.5,-12 1037.5,-24 1037.5,-24 1037.5,-30 1031.5,-36 1025.5,-36"/>
<text xml:space="preserve" text-anchor="middle" x="969.5" y="-20.5" font-family="Arial" font-size="10.00">Фёдор Эдуардович Ильин</text>
<text xml:space="preserve" text-anchor="middle" x="969.5" y="-8.5" font-family="Arial" font-size="10.00">12 DEC 2014</text>
</g>
<!-- II1 -->
<g id="node69" class="node">
<title>II1</title>
<path fill="#dbeafe" stroke="#1d4ed8" stroke-width="2" d="M954.62,-150.32C954.62,-150.32 828.38,-150.32 828.38,-150.32 822.38,-150.32 816.38,-144.32 816.38,-138.32 816.38,-138.32 816.38,-126.32 816.38,-126.32 816.38,-120.32 822.38,-114.32 828.38,-114.32 828.38,-114.32 954.62,-114.32 954.62,-114.32 960.62,-114.32 966.62,-120.32 966.62,-126.32 966.62,-126.32 966.62,-138.32 966.62,-138.32 966.62,-144.32 960.62,-150.32 954.62,-150.32"/>
<text xml:space="preserve" text-anchor="middle" x="891.5" y="-134.82" font-family="Arial" font-size="10.00">Эдуард Валентинович Ильин</text>
<text xml:space="preserve" text-anchor="middle" x="891.5" y="-122.82" font-family="Arial" font-size="10.00">20 MAR 1978</text>
</g>
<!-- FF1 -->
<g id="node74" class="node">
<title>FF1</title>
<ellipse fill="#94a3b8" stroke="#94a3b8" cx="801.5" cy="-75.16" rx="2.16" ry="2.16"/>
</g>
<!-- II1&#45;&gt;FF1 -->
<g id="edge1" class="edge">
<title>II1&#45;&gt;FF1</title>
<path fill="none" stroke="#64748b" stroke-width="1.1" d="M815.4,-126C807.2,-126 801.77,-126 801.77,-126 801.77,-126 801.77,-89.28 801.77,-89.28"/>
<polygon fill="#64748b" stroke="#64748b" stroke-width="1.1" points="805.27,-89.28 801.77,-79.28 798.27,-89.28 805.27,-89.28"/>
</g>
<!-- II8 -->
<g id="node70" class="node">
<title>II8</title>
<path fill="#ffffff" stroke="#334155" d="M1079.25,-150.32C1079.25,-150.32 1007.75,-150.32 1007.75,-150.32 1001.75,-150.32 995.75,-144.32 995.75,-138.32 995.75,-138.32 995.75,-126.32 995.75,-126.32 995.75,-120.32 1001.75,-114.32 1007.75,-114.32 1007.75,-114.32 1079.25,-114.32 1079.25,-114.32 1085.25,-114.32 1091.25,-120.32 1091.25,-126.32 1091.25,-126.32 1091.25,-138.32 1091.25,-138.32 1091.25,-144.32 1085.25,-150.32 1079.25,-150.32"/>
<text xml:space="preserve" text-anchor="middle" x="1043.5" y="-134.82" font-family="Arial" font-size="10.00">Виктория Ильина</text>
<text xml:space="preserve" text-anchor="middle" x="1043.5" y="-122.82" font-family="Arial" font-size="10.00">27 MAY 1972</text>
</g>
<!-- II500119 -->
<g id="node71" class="node">
<title>II500119</title>
<path fill="#ffffff" stroke="#334155" d="M3756.38,-524.96C3756.38,-524.96 3676.62,-524.96 3676.62,-524.96 3670.62,-524.96 3664.62,-518.96 3664.62,-512.96 3664.62,-512.96 3664.62,-500.96 3664.62,-500.96 3664.62,-494.96 3670.62,-488.96 3676.62,-488.96 3676.62,-488.96 3756.38,-488.96 3756.38,-488.96 3762.38,-488.96 3768.38,-494.96 3768.38,-500.96 3768.38,-500.96 3768.38,-512.96 3768.38,-512.96 3768.38,-518.96 3762.38,-524.96 3756.38,-524.96"/>
<text xml:space="preserve" text-anchor="middle" x="3716.5" y="-503.46" font-family="Arial" font-size="10.00">Василий? Семёнов</text>
</g>
<!-- II500119&#45;&gt;FF500047 -->
<g id="edge97" class="edge">
<title>II500119&#45;&gt;FF500047</title>
<path fill="none" stroke="#64748b" stroke-width="1.1" d="M3716.5,-488.55C3716.5,-466.94 3716.5,-434 3716.5,-434 3716.5,-434 3559.58,-434 3559.58,-434"/>
<polygon fill="#64748b" stroke="#64748b" stroke-width="1.1" points="3559.58,-430.5 3549.58,-434 3559.58,-437.5 3559.58,-430.5"/>
</g>
<!-- II500118 -->
<g id="node72" class="node">
<title>II500118</title>
<path fill="#ffffff" stroke="#334155" d="M3585,-378.96C3585,-378.96 3506,-378.96 3506,-378.96 3500,-378.96 3494,-372.96 3494,-366.96 3494,-366.96 3494,-354.96 3494,-354.96 3494,-348.96 3500,-342.96 3506,-342.96 3506,-342.96 3585,-342.96 3585,-342.96 3591,-342.96 3597,-348.96 3597,-354.96 3597,-354.96 3597,-366.96 3597,-366.96 3597,-372.96 3591,-378.96 3585,-378.96"/>
<text xml:space="preserve" text-anchor="middle" x="3545.5" y="-357.46" font-family="Arial" font-size="10.00">Варвара Семёнова</text>
</g>
<!-- II2 -->
<g id="node73" class="node">
<title>II2</title>
<path fill="#ffffff" stroke="#334155" d="M775.75,-150.32C775.75,-150.32 647.25,-150.32 647.25,-150.32 641.25,-150.32 635.25,-144.32 635.25,-138.32 635.25,-138.32 635.25,-126.32 635.25,-126.32 635.25,-120.32 641.25,-114.32 647.25,-114.32 647.25,-114.32 775.75,-114.32 775.75,-114.32 781.75,-114.32 787.75,-120.32 787.75,-126.32 787.75,-126.32 787.75,-138.32 787.75,-138.32 787.75,-144.32 781.75,-150.32 775.75,-150.32"/>
<text xml:space="preserve" text-anchor="middle" x="711.5" y="-134.82" font-family="Arial" font-size="10.00">Татьяна Сергеевна Сумбаева</text>
<text xml:space="preserve" text-anchor="middle" x="711.5" y="-122.82" font-family="Arial" font-size="10.00">21 JUN 1978</text>
</g>
<!-- II2&#45;&gt;FF1 -->
<g id="edge2" class="edge">
<title>II2&#45;&gt;FF1</title>
<path fill="none" stroke="#64748b" stroke-width="1.1" d="M788.09,-138C795.08,-138 799.61,-138 799.61,-138 799.61,-138 799.61,-88.64 799.61,-88.64"/>
<polygon fill="#64748b" stroke="#64748b" stroke-width="1.1" points="803.11,-88.64 799.61,-78.64 796.11,-88.64 803.11,-88.64"/>
</g>
<!-- FF1&#45;&gt;II3 -->
<g id="edge3" class="edge">
<title>FF1&#45;&gt;II3</title>
<path fill="none" stroke="#64748b" stroke-width="1.1" d="M799.19,-75C781.52,-75 668.44,-75 668.44,-75 668.44,-75 668.44,-48.01 668.44,-48.01"/>
<polygon fill="#64748b" stroke="#64748b" stroke-width="1.1" points="671.94,-48.01 668.44,-38.01 664.94,-48.01 671.94,-48.01"/>
</g>
<!-- FF1&#45;&gt;II4 -->
<g id="edge4" class="edge">
<title>FF1&#45;&gt;II4</title>
<path fill="none" stroke="#64748b" stroke-width="1.1" d="M801.5,-72.7C801.5,-72.7 801.5,-48.1 801.5,-48.1"/>
<polygon fill="#64748b" stroke="#64748b" stroke-width="1.1" points="805,-48.1 801.5,-38.1 798,-48.1 805,-48.1"/>
</g>
<!-- FF1&#45;&gt;II5 -->
<g id="edge5" class="edge">
<title>FF1&#45;&gt;II5</title>
<path fill="none" stroke="#64748b" stroke-width="1.1" d="M803.8,-75C821.4,-75 934.06,-75 934.06,-75 934.06,-75 934.06,-48.01 934.06,-48.01"/>
<polygon fill="#64748b" stroke="#64748b" stroke-width="1.1" points="937.56,-48.01 934.06,-38.01 930.56,-48.01 937.56,-48.01"/>
</g>
<!-- FF2&#45;&gt;II1 -->
<g id="edge9" class="edge">
<title>FF2&#45;&gt;II1</title>
<path fill="none" stroke="#64748b" stroke-width="1.1" d="M965.98,-187.58C965.98,-187.58 965.98,-162.97 965.98,-162.97"/>
<polygon fill="#64748b" stroke="#64748b" stroke-width="1.1" points="969.48,-162.97 965.98,-152.97 962.48,-162.97 969.48,-162.97"/>
</g>
<!-- FF2&#45;&gt;II8 -->
<g id="edge8" class="edge">
<title>FF2&#45;&gt;II8</title>
<path fill="none" stroke="#64748b" stroke-width="1.1" d="M968.14,-187.01C968.14,-176.01 968.14,-132 968.14,-132 968.14,-132 983.68,-132 983.68,-132"/>
<polygon fill="#64748b" stroke="#64748b" stroke-width="1.1" points="983.68,-135.5 993.68,-132 983.68,-128.5 983.68,-135.5"/>
</g>
<!-- FF6&#45;&gt;II7 -->
<g id="edge12" class="edge">
<title>FF6&#45;&gt;II7</title>
<path fill="none" stroke="#64748b" stroke-width="1.1" d="M1848.5,-301.36C1848.5,-290.49 1848.5,-247 1848.5,-247 1848.5,-247 1502.81,-247 1502.81,-247"/>
<polygon fill="#64748b" stroke="#64748b" stroke-width="1.1" points="1502.81,-243.5 1492.81,-247 1502.81,-250.5 1502.81,-243.5"/>
</g>
<!-- FF19&#45;&gt;II53 -->
<g id="edge17" class="edge">
<title>FF19&#45;&gt;II53</title>
<path fill="none" stroke="#64748b" stroke-width="1.1" d="M4175.71,-563C4190.88,-563 4279.19,-563 4279.19,-563 4279.19,-563 4279.19,-536.97 4279.19,-536.97"/>
<polygon fill="#64748b" stroke="#64748b" stroke-width="1.1" points="4282.69,-536.97 4279.19,-526.97 4275.69,-536.97 4282.69,-536.97"/>
</g>
<!-- FF19&#45;&gt;II54 -->
<g id="edge18" class="edge">
<title>FF19&#45;&gt;II54</title>
<path fill="none" stroke="#64748b" stroke-width="1.1" d="M4173.2,-566.6C4173.2,-573.25 4173.2,-591 4173.2,-591 4173.2,-591 3562.5,-591 3562.5,-591 3562.5,-591 3562.5,-536.86 3562.5,-536.86"/>
<polygon fill="#64748b" stroke="#64748b" stroke-width="1.1" points="3566,-536.86 3562.5,-526.86 3559,-536.86 3566,-536.86"/>
</g>
<!-- FF19&#45;&gt;II16 -->
<g id="edge20" class="edge">
<title>FF19&#45;&gt;II16</title>
<path fill="none" stroke="#64748b" stroke-width="1.1" d="M4172.27,-566.44C4172.27,-570.63 4172.27,-579 4172.27,-579 4172.27,-579 3957.69,-579 3957.69,-579 3957.69,-579 3957.69,-464.59 3957.69,-464.59"/>
<polygon fill="#64748b" stroke="#64748b" stroke-width="1.1" points="3961.19,-464.59 3957.69,-454.59 3954.19,-464.59 3961.19,-464.59"/>
</g>
<!-- FF19&#45;&gt;II51 -->
<g id="edge21" class="edge">
<title>FF19&#45;&gt;II51</title>
<path fill="none" stroke="#64748b" stroke-width="1.1" d="M4175.81,-565C4201.9,-565 4440.5,-565 4440.5,-565 4440.5,-565 4440.5,-536.99 4440.5,-536.99"/>
<polygon fill="#64748b" stroke="#64748b" stroke-width="1.1" points="4444,-536.99 4440.5,-526.99 4437,-536.99 4444,-536.99"/>
</g>
<!-- FF19&#45;&gt;II52 -->
<g id="edge16" class="edge">
<title>FF19&#45;&gt;II52</title>
<path fill="none" stroke="#64748b" stroke-width="1.1" d="M4172.78,-561.89C4172.78,-555.92 4172.78,-540 4172.78,-540 4172.78,-540 4592.5,-540 4592.5,-540 4592.5,-540 4592.5,-537.08 4592.5,-537.08"/>
<polygon fill="#64748b" stroke="#64748b" stroke-width="1.1" points="4596,-537.08 4592.5,-527.08 4589,-537.08 4596,-537.08"/>
</g>
<!-- FF19&#45;&gt;II50 -->
<g id="edge19" class="edge">
<title>FF19&#45;&gt;II50</title>
<path fill="none" stroke="#64748b" stroke-width="1.1" d="M4171.24,-563C4143.51,-563 3870.5,-563 3870.5,-563 3870.5,-563 3870.5,-536.97 3870.5,-536.97"/>
<polygon fill="#64748b" stroke="#64748b" stroke-width="1.1" points="3874,-536.97 3870.5,-526.97 3867,-536.97 3874,-536.97"/>
</g>
<!-- FF19&#45;&gt;II49 -->
<g id="edge15" class="edge">
<title>FF19&#45;&gt;II49</title>
<path fill="none" stroke="#64748b" stroke-width="1.1" d="M4174.22,-561.67C4174.22,-550.73 4174.22,-507 4174.22,-507 4174.22,-507 4140.87,-507 4140.87,-507"/>
<polygon fill="#64748b" stroke="#64748b" stroke-width="1.1" points="4140.87,-503.5 4130.87,-507 4140.87,-510.5 4140.87,-503.5"/>
</g>
<!-- FF21&#45;&gt;II58 -->
<g id="edge25" class="edge">
<title>FF21&#45;&gt;II58</title>
<path fill="none" stroke="#64748b" stroke-width="1.1" d="M2021.98,-433C2040.94,-433 2162.31,-433 2162.31,-433 2162.31,-433 2162.31,-390.8 2162.31,-390.8"/>
<polygon fill="#64748b" stroke="#64748b" stroke-width="1.1" points="2165.81,-390.8 2162.31,-380.8 2158.81,-390.8 2165.81,-390.8"/>
</g>
<!-- FF21&#45;&gt;II61 -->
<g id="edge28" class="edge">
<title>FF21&#45;&gt;II61</title>
<path fill="none" stroke="#64748b" stroke-width="1.1" d="M2021.9,-434C2051.27,-434 2340.5,-434 2340.5,-434 2340.5,-434 2340.5,-391.06 2340.5,-391.06"/>
<polygon fill="#64748b" stroke="#64748b" stroke-width="1.1" points="2344,-391.06 2340.5,-381.06 2337,-391.06 2344,-391.06"/>
</g>
<!-- FF21&#45;&gt;II60 -->
<g id="edge27" class="edge">
<title>FF21&#45;&gt;II60</title>
<path fill="none" stroke="#64748b" stroke-width="1.1" d="M2018.78,-431.65C2018.78,-428.71 2018.78,-424 2018.78,-424 2018.78,-424 2421.69,-424 2421.69,-424 2421.69,-424 2421.69,-390.86 2421.69,-390.86"/>
<polygon fill="#64748b" stroke="#64748b" stroke-width="1.1" points="2425.19,-390.86 2421.69,-380.86 2418.19,-390.86 2425.19,-390.86"/>
</g>
<!-- FF21&#45;&gt;II17 -->
<g id="edge24" class="edge">
<title>FF21&#45;&gt;II17</title>
<path fill="none" stroke="#64748b" stroke-width="1.1" d="M2017.1,-433C2000.64,-433 1904.81,-433 1904.81,-433 1904.81,-433 1904.81,-391.55 1904.81,-391.55"/>
<polygon fill="#64748b" stroke="#64748b" stroke-width="1.1" points="1908.31,-391.55 1904.81,-381.55 1901.31,-391.55 1908.31,-391.55"/>
</g>
<!-- FF21&#45;&gt;II59 -->
<g id="edge26" class="edge">
<title>FF21&#45;&gt;II59</title>
<path fill="none" stroke="#64748b" stroke-width="1.1" d="M2020.22,-431.53C2020.22,-431.53 2020.22,-390.94 2020.22,-390.94"/>
<polygon fill="#64748b" stroke="#64748b" stroke-width="1.1" points="2023.72,-390.94 2020.22,-380.94 2016.72,-390.94 2023.72,-390.94"/>
</g>
<!-- FF50&#45;&gt;II136 -->
<g id="edge31" class="edge">
<title>FF50&#45;&gt;II136</title>
<path fill="none" stroke="#64748b" stroke-width="1.1" d="M3111.5,-431.53C3111.5,-431.53 3111.5,-390.94 3111.5,-390.94"/>
<polygon fill="#64748b" stroke="#64748b" stroke-width="1.1" points="3115,-390.94 3111.5,-380.94 3108,-390.94 3115,-390.94"/>
</g>
<!-- FF54&#45;&gt;II154 -->
<g id="edge33" class="edge">
<title>FF54&#45;&gt;II154</title>
<path fill="none" stroke="#64748b" stroke-width="1.1" d="M1742.5,-431.53C1742.5,-431.53 1742.5,-390.94 1742.5,-390.94"/>
<polygon fill="#64748b" stroke="#64748b" stroke-width="1.1" points="1746,-390.94 1742.5,-380.94 1739,-390.94 1746,-390.94"/>
</g>
<!-- FF55&#45;&gt;II159 -->
<g id="edge39" class="edge">
<title>FF55&#45;&gt;II159</title>
<path fill="none" stroke="#64748b" stroke-width="1.1" d="M1396.37,-563C1361.96,-563 921.5,-563 921.5,-563 921.5,-563 921.5,-537.29 921.5,-537.29"/>
<polygon fill="#64748b" stroke="#64748b" stroke-width="1.1" points="925,-537.29 921.5,-527.29 918,-537.29 925,-537.29"/>
</g>
<!-- FF55&#45;&gt;II158 -->
<g id="edge38" class="edge">
<title>FF55&#45;&gt;II158</title>
<path fill="none" stroke="#64748b" stroke-width="1.1" d="M1398.5,-566.61C1398.5,-568.92 1398.5,-572 1398.5,-572 1398.5,-572 1503.88,-572 1503.88,-572 1503.88,-572 1503.88,-537.09 1503.88,-537.09"/>
<polygon fill="#64748b" stroke="#64748b" stroke-width="1.1" points="1507.38,-537.09 1503.88,-527.09 1500.38,-537.09 1507.38,-537.09"/>
</g>
<!-- FF55&#45;&gt;II57 -->
<g id="edge37" class="edge">
<title>FF55&#45;&gt;II57</title>
<path fill="none" stroke="#64748b" stroke-width="1.1" d="M1400.58,-563C1428.39,-563 1724.94,-563 1724.94,-563 1724.94,-563 1724.94,-537.29 1724.94,-537.29"/>
<polygon fill="#64748b" stroke="#64748b" stroke-width="1.1" points="1728.44,-537.29 1724.94,-527.29 1721.44,-537.29 1728.44,-537.29"/>
</g>
<!-- FF55&#45;&gt;II160 -->
<g id="edge40" class="edge">
<title>FF55&#45;&gt;II160</title>
<path fill="none" stroke="#64748b" stroke-width="1.1" d="M1397.78,-561.63C1397.78,-558.93 1397.78,-555 1397.78,-555 1397.78,-555 749.5,-555 749.5,-555 749.5,-555 749.5,-537.06 749.5,-537.06"/>
<polygon fill="#64748b" stroke="#64748b" stroke-width="1.1" points="753,-537.06 749.5,-527.06 746,-537.06 753,-537.06"/>
</g>
<!-- FF55&#45;&gt;II157 -->
<g id="edge36" class="edge">
<title>FF55&#45;&gt;II157</title>
<path fill="none" stroke="#64748b" stroke-width="1.1" d="M1399.22,-561.66C1399.22,-561.66 1399.22,-537.06 1399.22,-537.06"/>
<polygon fill="#64748b" stroke="#64748b" stroke-width="1.1" points="1402.72,-537.06 1399.22,-527.06 1395.72,-537.06 1402.72,-537.06"/>
</g>
<!-- FF97&#45;&gt;II264 -->
<g id="edge44" class="edge">
<title>FF97&#45;&gt;II264</title>
<path fill="none" stroke="#64748b" stroke-width="1.1" d="M2698.91,-565C2728.47,-565 3019.5,-565 3019.5,-565 3019.5,-565 3019.5,-537.31 3019.5,-537.31"/>
<polygon fill="#64748b" stroke="#64748b" stroke-width="1.1" points="3023,-537.31 3019.5,-527.31 3016,-537.31 3023,-537.31"/>
</g>
<!-- FF97&#45;&gt;II266 -->
<g id="edge46" class="edge">
<title>FF97&#45;&gt;II266</title>
<path fill="none" stroke="#64748b" stroke-width="1.1" d="M2697.22,-561.74C2697.22,-557.04 2697.22,-547 2697.22,-547 2697.22,-547 3192.5,-547 3192.5,-547 3192.5,-547 3192.5,-537.24 3192.5,-537.24"/>
<polygon fill="#64748b" stroke="#64748b" stroke-width="1.1" points="3196,-537.24 3192.5,-527.24 3189,-537.24 3196,-537.24"/>
</g>
<!-- FF97&#45;&gt;II267 -->
<g id="edge47" class="edge">
<title>FF97&#45;&gt;II267</title>
<path fill="none" stroke="#64748b" stroke-width="1.1" d="M2694.64,-566C2660.97,-566 2182.12,-566 2182.12,-566 2182.12,-566 2182.12,-537.31 2182.12,-537.31"/>
<polygon fill="#64748b" stroke="#64748b" stroke-width="1.1" points="2185.63,-537.31 2182.13,-527.31 2178.63,-537.31 2185.63,-537.31"/>
</g>
<!-- FF97&#45;&gt;II135 -->
<g id="edge49" class="edge">
<title>FF97&#45;&gt;II135</title>
<path fill="none" stroke="#64748b" stroke-width="1.1" d="M2693.99,-565C2663.32,-565 2361.25,-565 2361.25,-565 2361.25,-565 2361.25,-537.31 2361.25,-537.31"/>
<polygon fill="#64748b" stroke="#64748b" stroke-width="1.1" points="2364.75,-537.31 2361.25,-527.31 2357.75,-537.31 2364.75,-537.31"/>
</g>
<!-- FF97&#45;&gt;II269 -->
<g id="edge50" class="edge">
<title>FF97&#45;&gt;II269</title>
<path fill="none" stroke="#64748b" stroke-width="1.1" d="M2698,-566C2733.13,-566 3375.5,-566 3375.5,-566 3375.5,-566 3375.5,-537.31 3375.5,-537.31"/>
<polygon fill="#64748b" stroke="#64748b" stroke-width="1.1" points="3379,-537.31 3375.5,-527.31 3372,-537.31 3379,-537.31"/>
</g>
<!-- FF97&#45;&gt;II268 -->
<g id="edge48" class="edge">
<title>FF97&#45;&gt;II268</title>
<path fill="none" stroke="#64748b" stroke-width="1.1" d="M2694.12,-564C2672.36,-564 2508.5,-564 2508.5,-564 2508.5,-564 2508.5,-537.3 2508.5,-537.3"/>
<polygon fill="#64748b" stroke="#64748b" stroke-width="1.1" points="2512,-537.3 2508.5,-527.3 2505,-537.3 2512,-537.3"/>
</g>
<!-- FF97&#45;&gt;II265 -->
<g id="edge45" class="edge">
<title>FF97&#45;&gt;II265</title>
<path fill="none" stroke="#64748b" stroke-width="1.1" d="M2695.78,-561.66C2695.78,-561.66 2695.78,-537.34 2695.78,-537.34"/>
<polygon fill="#64748b" stroke="#64748b" stroke-width="1.1" points="2699.28,-537.34 2695.78,-527.34 2692.28,-537.34 2699.28,-537.34"/>
</g>
<!-- FF97&#45;&gt;II263 -->
<g id="edge43" class="edge">
<title>FF97&#45;&gt;II263</title>
<path fill="none" stroke="#64748b" stroke-width="1.1" d="M2699.09,-564C2720.08,-564 2861.5,-564 2861.5,-564 2861.5,-564 2861.5,-537.3 2861.5,-537.3"/>
<polygon fill="#64748b" stroke="#64748b" stroke-width="1.1" points="2865,-537.3 2861.5,-527.3 2858,-537.3 2865,-537.3"/>
</g>
<!-- FF114&#45;&gt;II262 -->
<g id="edge54" class="edge">
<title>FF114&#45;&gt;II262</title>
<path fill="none" stroke="#64748b" stroke-width="1.1" d="M1584.88,-678C1627.88,-678 2239.5,-678 2239.5,-678 2239.5,-678 2239.5,-651.52 2239.5,-651.52"/>
<polygon fill="#64748b" stroke="#64748b" stroke-width="1.1" points="2243,-651.52 2239.5,-641.52 2236,-651.52 2243,-651.52"/>
</g>
<!-- FF114&#45;&gt;II323 -->
<g id="edge55" class="edge">
<title>FF114&#45;&gt;II323</title>
<path fill="none" stroke="#64748b" stroke-width="1.1" d="M1580.13,-678C1562.01,-678 1446.06,-678 1446.06,-678 1446.06,-678 1446.06,-651.52 1446.06,-651.52"/>
<polygon fill="#64748b" stroke="#64748b" stroke-width="1.1" points="1449.56,-651.52 1446.06,-641.52 1442.56,-651.52 1449.56,-651.52"/>
</g>
<!-- FF114&#45;&gt;II155 -->
<g id="edge53" class="edge">
<title>FF114&#45;&gt;II155</title>
<path fill="none" stroke="#64748b" stroke-width="1.1" d="M1582.5,-675.98C1582.5,-675.98 1582.5,-651.38 1582.5,-651.38"/>
<polygon fill="#64748b" stroke="#64748b" stroke-width="1.1" points="1586,-651.38 1582.5,-641.38 1579,-651.38 1586,-651.38"/>
</g>
<!-- FF115&#45;&gt;II156 -->
<g id="edge57" class="edge">
<title>FF115&#45;&gt;II156</title>
<path fill="none" stroke="#64748b" stroke-width="1.1" d="M1215.5,-675.98C1215.5,-675.98 1215.5,-651.38 1215.5,-651.38"/>
<polygon fill="#64748b" stroke="#64748b" stroke-width="1.1" points="1219,-651.38 1215.5,-641.38 1212,-651.38 1219,-651.38"/>
</g>
<!-- FF116&#45;&gt;II327 -->
<g id="edge61" class="edge">
<title>FF116&#45;&gt;II327</title>
<path fill="none" stroke="#64748b" stroke-width="1.1" d="M1279.05,-433C1265.1,-433 1196.44,-433 1196.44,-433 1196.44,-433 1196.44,-390.8 1196.44,-390.8"/>
<polygon fill="#64748b" stroke="#64748b" stroke-width="1.1" points="1199.94,-390.8 1196.44,-380.8 1192.94,-390.8 1199.94,-390.8"/>
</g>
<!-- FF116&#45;&gt;II326 -->
<g id="edge60" class="edge">
<title>FF116&#45;&gt;II326</title>
<path fill="none" stroke="#64748b" stroke-width="1.1" d="M1281.5,-431.53C1281.5,-431.53 1281.5,-390.94 1281.5,-390.94"/>
<polygon fill="#64748b" stroke="#64748b" stroke-width="1.1" points="1285,-390.94 1281.5,-380.94 1278,-390.94 1285,-390.94"/>
</g>
<!-- FF116&#45;&gt;II329 -->
<g id="edge62" class="edge">
<title>FF116&#45;&gt;II329</title>
<path fill="none" stroke="#64748b" stroke-width="1.1" d="M1283.77,-433C1301.1,-433 1412.06,-433 1412.06,-433 1412.06,-433 1412.06,-390.8 1412.06,-390.8"/>
<polygon fill="#64748b" stroke="#64748b" stroke-width="1.1" points="1415.56,-390.8 1412.06,-380.8 1408.56,-390.8 1415.56,-390.8"/>
</g>
<!-- FF117&#45;&gt;II330 -->
<g id="edge64" class="edge">
<title>FF117&#45;&gt;II330</title>
<path fill="none" stroke="#64748b" stroke-width="1.1" d="M1583.5,-431.53C1583.5,-431.53 1583.5,-390.94 1583.5,-390.94"/>
<polygon fill="#64748b" stroke="#64748b" stroke-width="1.1" points="1587,-390.94 1583.5,-380.94 1580,-390.94 1587,-390.94"/>
</g>
<!-- FF118&#45;&gt;II333 -->
<g id="edge68" class="edge">
<title>FF118&#45;&gt;II333</title>
<path fill="none" stroke="#64748b" stroke-width="1.1" d="M964.5,-431.53C964.5,-431.53 964.5,-390.94 964.5,-390.94"/>
<polygon fill="#64748b" stroke="#64748b" stroke-width="1.1" points="968,-390.94 964.5,-380.94 961,-390.94 968,-390.94"/>
</g>
<!-- FF118&#45;&gt;II332 -->
<g id="edge67" class="edge">
<title>FF118&#45;&gt;II332</title>
<path fill="none" stroke="#64748b" stroke-width="1.1" d="M962.11,-433C947.24,-433 867.94,-433 867.94,-433 867.94,-433 867.94,-390.8 867.94,-390.8"/>
<polygon fill="#64748b" stroke="#64748b" stroke-width="1.1" points="871.44,-390.8 867.94,-380.8 864.44,-390.8 871.44,-390.8"/>
</g>
<!-- FF160&#45;&gt;II261 -->
<g id="edge70" class="edge">
<title>FF160&#45;&gt;II261</title>
<path fill="none" stroke="#64748b" stroke-width="1.1" d="M2696.5,-675.98C2696.5,-675.98 2696.5,-651.38 2696.5,-651.38"/>
<polygon fill="#64748b" stroke="#64748b" stroke-width="1.1" points="2700,-651.38 2696.5,-641.38 2693,-651.38 2700,-651.38"/>
</g>
<!-- FF177&#45;&gt;II321 -->
<g id="edge72" class="edge">
<title>FF177&#45;&gt;II321</title>
<path fill="none" stroke="#64748b" stroke-width="1.1" d="M1493.5,-790.3C1493.5,-790.3 1493.5,-765.7 1493.5,-765.7"/>
<polygon fill="#64748b" stroke="#64748b" stroke-width="1.1" points="1497,-765.7 1493.5,-755.7 1490,-765.7 1497,-765.7"/>
</g>
<!-- FF178&#45;&gt;II322 -->
<g id="edge74" class="edge">
<title>FF178&#45;&gt;II322</title>
<path fill="none" stroke="#64748b" stroke-width="1.1" d="M1671.5,-790.3C1671.5,-790.3 1671.5,-765.7 1671.5,-765.7"/>
<polygon fill="#64748b" stroke="#64748b" stroke-width="1.1" points="1675,-765.7 1671.5,-755.7 1668,-765.7 1675,-765.7"/>
</g>
<!-- FF179&#45;&gt;II483 -->
<g id="edge77" class="edge">
<title>FF179&#45;&gt;II483</title>
<path fill="none" stroke="#64748b" stroke-width="1.1" d="M515.84,-565C522.87,-565 543.33,-565 543.33,-565 543.33,-565 543.33,-532 543.33,-532 543.33,-532 293.5,-532 293.5,-532 293.5,-532 293.5,-531.34 293.5,-531.34"/>
<polygon fill="#64748b" stroke="#64748b" stroke-width="1.1" points="297,-537.09 293.5,-527.09 290,-537.09 297,-537.09"/>
</g>
<!-- FF179&#45;&gt;II484 -->
<g id="edge78" class="edge">
<title>FF179&#45;&gt;II484</title>
<path fill="none" stroke="#64748b" stroke-width="1.1" d="M511,-564C501.36,-564 467.06,-564 467.06,-564 467.06,-564 467.06,-537.3 467.06,-537.3"/>
<polygon fill="#64748b" stroke="#64748b" stroke-width="1.1" points="470.56,-537.3 467.06,-527.3 463.56,-537.3 470.56,-537.3"/>
</g>
<!-- FF179&#45;&gt;II485 -->
<g id="edge79" class="edge">
<title>FF179&#45;&gt;II485</title>
<path fill="none" stroke="#64748b" stroke-width="1.1" d="M513.5,-561.66C513.5,-561.66 513.5,-537.06 513.5,-537.06"/>
<polygon fill="#64748b" stroke="#64748b" stroke-width="1.1" points="517,-537.06 513.5,-527.06 510,-537.06 517,-537.06"/>
</g>
<!-- FF239&#45;&gt;II482 -->
<g id="edge81" class="edge">
<title>FF239&#45;&gt;II482</title>
<path fill="none" stroke="#64748b" stroke-width="1.1" d="M513.5,-675.98C513.5,-675.98 513.5,-651.38 513.5,-651.38"/>
<polygon fill="#64748b" stroke="#64748b" stroke-width="1.1" points="517,-651.38 513.5,-641.38 510,-651.38 517,-651.38"/>
</g>
<!-- FF240&#45;&gt;II631 -->
<g id="edge84" class="edge">
<title>FF240&#45;&gt;II631</title>
<path fill="none" stroke="#64748b" stroke-width="1.1" d="M293.5,-431.53C293.5,-431.53 293.5,-391.28 293.5,-391.28"/>
<polygon fill="#64748b" stroke="#64748b" stroke-width="1.1" points="297,-391.28 293.5,-381.28 290,-391.28 297,-391.28"/>
</g>
<!-- FF240&#45;&gt;II630 -->
<g id="edge83" class="edge">
<title>FF240&#45;&gt;II630</title>
<path fill="none" stroke="#64748b" stroke-width="1.1" d="M291.01,-434C273.86,-434 174.12,-434 174.12,-434 174.12,-434 174.12,-391.06 174.12,-391.06"/>
<polygon fill="#64748b" stroke="#64748b" stroke-width="1.1" points="177.63,-391.06 174.13,-381.06 170.63,-391.06 177.63,-391.06"/>
</g>
<!-- FF241&#45;&gt;II634 -->
<g id="edge88" class="edge">
<title>FF241&#45;&gt;II634</title>
<path fill="none" stroke="#64748b" stroke-width="1.1" d="M516.9,-435C537.55,-435 684.38,-435 684.38,-435 684.38,-435 684.38,-391.31 684.38,-391.31"/>
<polygon fill="#64748b" stroke="#64748b" stroke-width="1.1" points="687.88,-391.31 684.38,-381.31 680.88,-391.31 687.88,-391.31"/>
</g>
<!-- FF241&#45;&gt;II633 -->
<g id="edge87" class="edge">
<title>FF241&#45;&gt;II633</title>
<path fill="none" stroke="#64748b" stroke-width="1.1" d="M512.2,-434C506.05,-434 489.62,-434 489.62,-434 489.62,-434 489.62,-391.06 489.62,-391.06"/>
<polygon fill="#64748b" stroke="#64748b" stroke-width="1.1" points="493.13,-391.06 489.63,-381.06 486.13,-391.06 493.13,-391.06"/>
</g>
<!-- FF241&#45;&gt;II632 -->
<g id="edge86" class="edge">
<title>FF241&#45;&gt;II632</title>
<path fill="none" stroke="#64748b" stroke-width="1.1" d="M514.5,-431.53C514.5,-418.87 514.5,-361 514.5,-361 514.5,-361 518.02,-361 518.02,-361"/>
<polygon fill="#64748b" stroke="#64748b" stroke-width="1.1" points="518.02,-364.5 528.02,-361 518.02,-357.5 518.02,-364.5"/>
</g>
<!-- FF304&#45;&gt;II783 -->
<g id="edge90" class="edge">
<title>FF304&#45;&gt;II783</title>
<path fill="none" stroke="#64748b" stroke-width="1.1" d="M198.5,-301.34C198.5,-301.34 198.5,-276.74 198.5,-276.74"/>
<polygon fill="#64748b" stroke="#64748b" stroke-width="1.1" points="202,-276.74 198.5,-266.74 195,-276.74 202,-276.74"/>
</g>
<!-- FF305&#45;&gt;II784 -->
<g id="edge92" class="edge">
<title>FF305&#45;&gt;II784</title>
<path fill="none" stroke="#64748b" stroke-width="1.1" d="M307.5,-301.34C307.5,-301.34 307.5,-276.74 307.5,-276.74"/>
<polygon fill="#64748b" stroke="#64748b" stroke-width="1.1" points="311,-276.74 307.5,-266.74 304,-276.74 311,-276.74"/>
</g>
<!-- FF306&#45;&gt;II785 -->
<g id="edge94" class="edge">
<title>FF306&#45;&gt;II785</title>
<path fill="none" stroke="#64748b" stroke-width="1.1" d="M445.5,-301.34C445.5,-301.34 445.5,-276.74 445.5,-276.74"/>
<polygon fill="#64748b" stroke="#64748b" stroke-width="1.1" points="449,-276.74 445.5,-266.74 442,-276.74 449,-276.74"/>
</g>
<!-- FF307&#45;&gt;II786 -->
<g id="edge96" class="edge">
<title>FF307&#45;&gt;II786</title>
<path fill="none" stroke="#64748b" stroke-width="1.1" d="M715.5,-301.34C715.5,-301.34 715.5,-276.74 715.5,-276.74"/>
<polygon fill="#64748b" stroke="#64748b" stroke-width="1.1" points="719,-276.74 715.5,-266.74 712,-276.74 719,-276.74"/>
</g>
<!-- FF500047&#45;&gt;II500118 -->
<g id="edge99" class="edge">
<title>FF500047&#45;&gt;II500118</title>
<path fill="none" stroke="#64748b" stroke-width="1.1" d="M3545.5,-431.53C3545.5,-431.53 3545.5,-390.94 3545.5,-390.94"/>
<polygon fill="#64748b" stroke="#64748b" stroke-width="1.1" points="3549,-390.94 3545.5,-380.94 3542,-390.94 3549,-390.94"/>
</g>
</g>
</svg>
